<svg version="1.1" id="Layer_1" xmlns="http://www.w3.org/2000/svg" xmlns:xlink="http://www.w3.org/1999/xlink" x="0px" y="0px"
	 width="100%" viewBox="0 0 500 500" enable-background="new 0 0 500 500" xml:space="preserve">
	<path fill="#019934" opacity="1.000000" stroke="none" 
		d="
		M270.000000,501.000000 
			C257.312439,501.000000 244.624878,501.000000 231.288727,500.626282 
			C221.906296,499.064301 213.097626,498.269989 204.449966,496.627869 
			C99.703491,476.736755 19.640240,393.191437 3.735530,287.380615 
			C2.912780,281.907043 1.915842,276.459595 1.000001,271.000000 
			C1.000000,258.312439 1.000000,245.624878 1.357575,232.255981 
			C3.971243,217.805313 5.269434,203.796906 8.636562,190.304840 
			C33.250797,91.675705 114.550308,18.440256 215.121811,3.716789 
			C220.759613,2.891426 226.374466,1.909210 232.000000,1.000000 
			C244.020889,1.000000 256.041779,1.000000 268.740723,1.364285 
			C288.398926,3.138107 307.233307,5.997754 325.159760,12.270702 
			C421.747314,46.069313 479.955902,113.028152 498.161377,214.125641 
			C499.230347,220.061661 500.059326,226.040894 501.000000,232.000000 
			C501.000000,244.687561 501.000000,257.375122 500.628479,270.715332 
			C498.064148,284.645813 496.682526,298.118317 493.549377,311.170410 
			C470.055969,409.039886 387.041748,484.004181 286.879486,498.285522 
			C281.238647,499.089783 275.625854,500.090668 270.000000,501.000000 
		M287.659943,309.159027 
			C323.725922,272.870544 356.739868,233.949814 387.827118,193.358536 
			C353.076965,259.160614 306.011139,314.606750 247.001755,360.501465 
			C256.450317,361.512756 265.674774,362.213898 274.889893,362.107361 
			C335.233734,361.409698 380.729462,334.367584 411.747314,283.184418 
			C435.020813,244.780289 442.357086,202.408966 439.678833,158.031815 
			C439.253326,150.982101 438.172455,143.971954 437.384003,136.847473 
			C388.499207,134.143875 342.780396,142.340729 300.506134,166.227524 
			C276.500793,179.791626 256.291718,197.677460 241.492844,221.122055 
			C222.023819,251.965164 217.463211,285.584259 224.768066,320.865753 
			C227.335556,333.266388 231.680191,345.299072 235.213394,357.499786 
			C235.881744,357.592499 236.550095,357.685211 237.218430,357.777954 
			C253.866470,341.739197 270.514526,325.700439 287.659943,309.159027 
		M138.799469,273.699005 
			C133.017410,267.703522 127.299553,261.644379 121.435081,255.730606 
			C115.658340,249.905304 109.733040,244.227310 103.872917,238.484695 
			C104.270767,238.114883 104.668617,237.745087 105.066467,237.375290 
			C148.418091,268.444061 184.006485,306.750031 211.988327,353.802216 
			C213.310684,345.859772 214.788223,339.213104 215.475555,332.485718 
			C219.190704,296.122467 209.306992,264.081726 183.257721,238.082336 
			C151.604767,206.489975 112.166115,194.602982 68.332855,194.799744 
			C65.410889,194.812851 64.407120,195.822540 63.946777,198.713898 
			C60.053757,223.165695 60.312660,247.488235 66.042725,271.628662 
			C71.999527,296.724243 82.964088,319.271118 101.494270,337.540436 
			C125.526207,361.234039 154.899246,368.808228 187.730774,364.696655 
			C194.714050,363.822113 201.559265,361.845154 209.087723,360.244324 
			C187.404129,329.389038 164.352371,300.986786 138.799469,273.699005 
		z"/>
		<path fill="none" opacity="1.000000" stroke="none" 
			d="
		M501.000000,231.531342 
			C500.059326,226.040894 499.230347,220.061661 498.161377,214.125641 
			C479.955902,113.028152 421.747314,46.069313 325.159760,12.270702 
			C307.233307,5.997754 288.398926,3.138107 269.209381,1.364285 
			C346.260223,1.000000 423.520416,1.000000 501.000000,1.000000 
			C501.000000,77.687424 501.000000,154.375046 501.000000,231.531342 
		z"/>
		<path fill="none" opacity="1.000000" stroke="none" 
			d="
		M231.531342,1.000000 
			C226.374466,1.909210 220.759613,2.891426 215.121811,3.716789 
			C114.550308,18.440256 33.250797,91.675705 8.636562,190.304840 
			C5.269434,203.796906 3.971243,217.805313 1.357575,231.787323 
			C1.000000,155.072952 1.000000,78.145912 1.000000,1.000000 
			C77.687424,1.000000 154.375046,1.000000 231.531342,1.000000 
		z"/>
		<path fill="none" opacity="1.000000" stroke="none" 
			d="
		M270.468658,501.000000 
			C275.625854,500.090668 281.238647,499.089783 286.879486,498.285522 
			C387.041748,484.004181 470.055969,409.039886 493.549377,311.170410 
			C496.682526,298.118317 498.064148,284.645813 500.628479,271.183990 
			C501.000000,347.593872 501.000000,424.187714 501.000000,501.000000 
			C424.312592,501.000000 347.624939,501.000000 270.468658,501.000000 
		z"/>
		<path fill="none" opacity="1.000000" stroke="none" 
			d="
		M1.000001,271.468658 
			C1.915842,276.459595 2.912780,281.907043 3.735530,287.380615 
			C19.640240,393.191437 99.703491,476.736755 204.449966,496.627869 
			C213.097626,498.269989 221.906296,499.064301 230.820068,500.626282 
			C154.406296,501.000000 77.812592,501.000000 1.000000,501.000000 
			C1.000000,424.645905 1.000000,348.291626 1.000001,271.468658 
		z"/>
		<path fill="#FEFFFE" opacity="1.000000" stroke="none" 
			d="
		M287.411255,309.410339 
			C270.514526,325.700439 253.866470,341.739197 237.218430,357.777954 
			C236.550095,357.685211 235.881744,357.592499 235.213394,357.499786 
			C231.680191,345.299072 227.335556,333.266388 224.768066,320.865753 
			C217.463211,285.584259 222.023819,251.965164 241.492844,221.122055 
			C256.291718,197.677460 276.500793,179.791626 300.506134,166.227524 
			C342.780396,142.340729 388.499207,134.143875 437.384003,136.847473 
			C438.172455,143.971954 439.253326,150.982101 439.678833,158.031815 
			C442.357086,202.408966 435.020813,244.780289 411.747314,283.184418 
			C380.729462,334.367584 335.233734,361.409698 274.889893,362.107361 
			C265.674774,362.213898 256.450317,361.512756 247.001755,360.501465 
			C306.011139,314.606750 353.076965,259.160614 387.827118,193.358536 
			C356.739868,233.949814 323.725922,272.870544 287.411255,309.410339 
		z"/>
		<path fill="#FEFEFE" opacity="1.000000" stroke="none" 
			d="
		M139.048218,273.951477 
			C164.352371,300.986786 187.404129,329.389038 209.087723,360.244324 
			C201.559265,361.845154 194.714050,363.822113 187.730774,364.696655 
			C154.899246,368.808228 125.526207,361.234039 101.494270,337.540436 
			C82.964088,319.271118 71.999527,296.724243 66.042725,271.628662 
			C60.312660,247.488235 60.053757,223.165695 63.946777,198.713898 
			C64.407120,195.822540 65.410889,194.812851 68.332855,194.799744 
			C112.166115,194.602982 151.604767,206.489975 183.257721,238.082336 
			C209.306992,264.081726 219.190704,296.122467 215.475555,332.485718 
			C214.788223,339.213104 213.310684,345.859772 211.988327,353.802216 
			C184.006485,306.750031 148.418091,268.444061 105.066467,237.375290 
			C104.668617,237.745087 104.270767,238.114883 103.872917,238.484695 
			C109.733040,244.227310 115.658340,249.905304 121.435081,255.730606 
			C127.299553,261.644379 133.017410,267.703522 139.048218,273.951477 
		M103.187164,238.033722 
			C103.559326,238.079147 103.931480,238.124557 104.303642,238.169968 
			C104.080925,237.607025 103.858200,237.044067 103.258003,236.086319 
			C102.916473,235.976685 102.574944,235.867050 101.934700,235.220108 
			C101.374405,235.183777 100.814110,235.147446 99.047295,235.032883 
			C100.617912,235.840652 101.115364,236.096497 101.815186,236.818695 
			C102.103447,236.984787 102.391708,237.150879 103.187164,238.033722 
		z"/>
		<path fill="#019934" opacity="1.000000" stroke="none" 
			d="
		M101.612816,236.352325 
			C101.115364,236.096497 100.617912,235.840652 99.047295,235.032883 
			C100.814110,235.147446 101.374405,235.183777 101.930557,235.639297 
			C101.926414,236.058487 101.612816,236.352325 101.612816,236.352325 
		z"/>
		<path fill="#019934" opacity="1.000000" stroke="none" 
			d="
		M102.679970,237.316986 
			C102.391708,237.150879 102.103447,236.984787 101.714005,236.585510 
			C101.612816,236.352325 101.926414,236.058487 102.079910,235.907959 
			C102.574944,235.867050 102.916473,235.976685 103.206375,236.490967 
			C102.996490,237.036087 102.838234,237.176529 102.679970,237.316986 
		z"/>
		<path fill="#019934" opacity="1.000000" stroke="none" 
			d="
		M103.395111,236.688385 
			C103.858200,237.044067 104.080925,237.607025 104.303642,238.169968 
			C103.931480,238.124557 103.559326,238.079147 102.933563,237.675354 
			C102.838234,237.176529 102.996490,237.036087 103.395111,236.688385 
		z"/>
</svg>