<svg version="1.1" id="Layer_1" xmlns="http://www.w3.org/2000/svg" xmlns:xlink="http://www.w3.org/1999/xlink" x="0px" y="0px"
	 width="100%" viewBox="0 0 128 120" enable-background="new 0 0 128 120" xml:space="preserve">
<path fill="none" opacity="1.000000" stroke="none" 
	d="
M77.000000,121.000000 
	C51.333332,121.000000 26.166666,121.000000 1.000000,121.000000 
	C1.000000,81.000000 1.000000,41.000000 1.000000,1.000000 
	C43.666668,1.000000 86.333336,1.000000 129.000000,1.000000 
	C129.000000,41.000000 129.000000,81.000000 129.000000,121.000000 
	C111.833336,121.000000 94.666664,121.000000 77.000000,121.000000 
M40.121918,76.591553 
	C42.107067,78.455437 44.092216,80.319321 46.355057,82.717926 
	C47.567085,83.398170 48.779114,84.078415 50.507912,85.133987 
	C51.266830,85.447678 52.025745,85.761375 53.267151,86.721008 
	C64.316353,89.905014 74.344353,88.611160 83.268105,79.593994 
	C85.148323,76.393074 87.028542,73.192146 89.407745,69.408653 
	C89.873413,66.287796 90.339073,63.166943 90.958466,59.208576 
	C90.343559,43.605419 77.473679,31.573757 61.903008,32.045517 
	C47.332413,32.486977 34.956577,45.542099 35.107063,60.916035 
	C35.507488,63.267227 35.907913,65.618416 36.320812,68.664917 
	C37.553429,71.083351 38.786045,73.501778 40.121918,76.591553 
M65.727066,99.617722 
	C67.955650,99.344688 70.231628,99.263123 72.395195,98.727478 
	C73.712242,98.401405 74.779175,97.155769 76.089371,96.697311 
	C89.026077,92.170593 96.750526,82.947533 100.712547,70.072365 
	C101.232994,68.381058 102.900764,66.563225 104.511627,65.780617 
	C108.668938,63.760872 113.091988,62.288136 118.632820,60.117413 
	C113.775536,58.219681 110.179008,56.814522 107.116692,55.618080 
	C105.187653,57.339165 103.702095,59.794823 102.060577,59.903919 
	C98.124123,60.165546 98.210297,62.518394 97.831009,65.251213 
	C95.998764,78.453232 89.095879,87.893295 76.648987,92.994102 
	C75.208885,93.584267 73.370667,94.065834 71.951500,93.696594 
	C65.389404,91.989273 64.171761,93.009712 64.441109,100.737625 
	C63.668140,98.921745 62.895168,97.105873 62.038162,95.092575 
	C50.727222,95.379959 41.393448,90.822426 34.845837,81.616356 
	C31.973373,77.577614 27.502199,73.378937 30.798012,67.099594 
	C31.294937,66.152824 29.737122,63.282619 28.418045,62.496723 
	C27.374649,61.875072 24.423100,62.585670 23.795731,63.609550 
	C23.011053,64.890144 23.422215,67.190247 23.917484,68.873634 
	C24.284687,70.121712 26.040537,70.950089 26.441013,72.201256 
	C30.671932,85.419472 39.415569,93.833099 52.853432,97.252716 
	C55.679855,97.971970 57.183464,99.349602 58.031956,102.264694 
	C59.236382,106.402634 61.149956,110.334160 63.094330,115.187080 
	C65.109924,110.494545 66.606583,107.010147 67.700577,104.463203 
	C66.572350,102.538361 65.802536,101.225006 65.727066,99.617722 
M83.988449,27.425409 
	C80.494766,25.964676 77.105606,24.077545 73.472168,23.186977 
	C70.872520,22.549795 69.575485,21.698765 68.720795,19.086922 
	C67.311577,14.780464 65.280266,10.677578 63.115982,5.553233 
	C61.181049,9.873170 59.611023,13.378419 58.574200,15.693231 
	C60.908276,19.026346 62.711601,21.601538 65.086937,24.993572 
	C65.853546,25.113487 67.974541,25.422722 70.087517,25.779482 
	C82.568916,27.886862 91.050262,35.010036 95.668808,46.652882 
	C96.329025,48.317223 95.407188,50.548100 95.584023,52.483295 
	C95.743942,54.233501 95.883469,56.683319 96.989075,57.457062 
	C98.141136,58.263313 101.084450,58.089905 102.054100,57.135414 
	C103.036346,56.168533 103.110382,53.544071 102.597839,51.965183 
	C101.821526,49.573704 100.056725,47.524055 98.952515,45.214153 
	C95.606705,38.215034 91.310966,32.042171 83.988449,27.425409 
M45.396439,25.776003 
	C35.360924,30.803255 28.725016,38.698078 26.281591,49.651863 
	C25.631771,52.564991 24.447401,53.915474 21.895840,54.825321 
	C17.328453,56.453979 12.825510,58.263371 7.444124,60.323135 
	C12.152256,62.098934 15.827832,63.485275 18.356113,64.438889 
	C21.863489,62.264687 24.607710,60.563557 27.875803,58.537685 
	C28.934002,44.385220 35.541786,33.010906 50.073780,27.289349 
	C51.589737,26.692482 53.648331,27.644718 55.399010,27.426918 
	C57.295212,27.191017 59.555752,26.888439 60.818359,25.713388 
	C61.539654,25.042107 61.103508,21.547428 60.280529,21.134756 
	C58.705730,20.345093 56.283546,20.306198 54.572704,20.934757 
	C51.588299,22.031218 48.876266,23.869028 45.396439,25.776003 
z"/>
<path fill="#FA9109" opacity="1.000000" stroke="none" 
	d="
M35.280708,60.129063 
	C34.956577,45.542099 47.332413,32.486977 61.903008,32.045517 
	C77.473679,31.573757 90.343559,43.605419 90.436470,59.628456 
	C86.606323,60.096134 83.298180,60.143932 79.863388,59.826363 
	C79.226295,57.731121 78.754845,55.988579 78.198326,54.273640 
	C76.245132,48.254726 70.827293,44.689651 64.552147,43.893570 
	C55.496319,42.744717 44.938175,51.746891 46.654255,62.819824 
	C42.615528,61.938007 38.948116,61.033535 35.280708,60.129063 
z"/>
<path fill="#0F9535" opacity="1.000000" stroke="none" 
	d="
M35.193886,60.522549 
	C38.948116,61.033535 42.615528,61.938007 46.938164,63.027534 
	C50.055187,64.483055 52.516983,65.753517 54.987362,67.012985 
	C54.995945,67.001991 54.975849,67.014748 55.041290,67.264366 
	C55.410286,67.644203 55.713837,67.774429 56.019821,67.945770 
	C56.022251,67.986900 56.103733,67.974686 56.156197,68.196808 
	C56.412945,68.698418 56.684158,68.800835 57.351398,68.934044 
	C62.775379,66.734764 67.870270,64.327621 73.342201,61.963490 
	C75.809502,61.401569 77.899765,60.796646 79.990028,60.191727 
	C83.298180,60.143932 86.606323,60.096134 90.359604,60.047215 
	C90.339073,63.166943 89.873413,66.287796 88.698578,69.701775 
	C85.007568,69.993423 82.007622,69.777885 79.047073,70.028244 
	C67.400208,71.013168 57.518955,75.593697 49.991142,84.758667 
	C48.779114,84.078415 47.567085,83.398170 46.500744,82.260254 
	C47.831631,79.873154 49.016830,77.943726 50.534317,75.974983 
	C51.906925,75.060905 52.947243,74.186127 53.987556,73.311356 
	C53.938370,72.708702 53.889183,72.106056 53.839996,71.503410 
	C47.996109,70.325478 42.152222,69.147545 36.308334,67.969612 
	C35.907913,65.618416 35.507488,63.267227 35.193886,60.522549 
z"/>
<path fill="#0F0F0F" opacity="1.000000" stroke="none" 
	d="
M84.280304,27.650051 
	C91.310966,32.042171 95.606705,38.215034 98.952515,45.214153 
	C100.056725,47.524055 101.821526,49.573704 102.597839,51.965183 
	C103.110382,53.544071 103.036346,56.168533 102.054100,57.135414 
	C101.084450,58.089905 98.141136,58.263313 96.989075,57.457062 
	C95.883469,56.683319 95.743942,54.233501 95.584023,52.483295 
	C95.407188,50.548100 96.329025,48.317223 95.668808,46.652882 
	C91.050262,35.010036 82.568916,27.886862 70.087517,25.779482 
	C67.974541,25.422722 65.853546,25.113487 65.086937,24.993572 
	C62.711601,21.601538 60.908276,19.026346 58.574200,15.693231 
	C59.611023,13.378419 61.181049,9.873170 63.115982,5.553233 
	C65.280266,10.677578 67.311577,14.780464 68.720795,19.086922 
	C69.575485,21.698765 70.872520,22.549795 73.472168,23.186977 
	C77.105606,24.077545 80.494766,25.964676 84.280304,27.650051 
z"/>
<path fill="#0F0F0F" opacity="1.000000" stroke="none" 
	d="
M65.111458,99.987251 
	C64.171761,93.009712 65.389404,91.989273 71.951500,93.696594 
	C73.370667,94.065834 75.208885,93.584267 76.648987,92.994102 
	C89.095879,87.893295 95.998764,78.453232 97.831009,65.251213 
	C98.210297,62.518394 98.124123,60.165546 102.060577,59.903919 
	C103.702095,59.794823 105.187653,57.339165 107.116692,55.618080 
	C110.179008,56.814522 113.775536,58.219681 118.632820,60.117413 
	C113.091988,62.288136 108.668938,63.760872 104.511627,65.780617 
	C102.900764,66.563225 101.232994,68.381058 100.712547,70.072365 
	C96.750526,82.947533 89.026077,92.170593 76.089371,96.697311 
	C74.779175,97.155769 73.712242,98.401405 72.395195,98.727478 
	C70.231628,99.263123 67.955650,99.344688 65.395309,99.788025 
	C65.063560,99.958336 65.111458,99.987251 65.111458,99.987251 
z"/>
<path fill="#0D0D0D" opacity="1.000000" stroke="none" 
	d="
M65.048141,99.934990 
	C65.802536,101.225006 66.572350,102.538361 67.700577,104.463203 
	C66.606583,107.010147 65.109924,110.494545 63.094330,115.187080 
	C61.149956,110.334160 59.236382,106.402634 58.031956,102.264694 
	C57.183464,99.349602 55.679855,97.971970 52.853432,97.252716 
	C39.415569,93.833099 30.671932,85.419472 26.441013,72.201256 
	C26.040537,70.950089 24.284687,70.121712 23.917484,68.873634 
	C23.422215,67.190247 23.011053,64.890144 23.795731,63.609550 
	C24.423100,62.585670 27.374649,61.875072 28.418045,62.496723 
	C29.737122,63.282619 31.294937,66.152824 30.798012,67.099594 
	C27.502199,73.378937 31.973373,77.577614 34.845837,81.616356 
	C41.393448,90.822426 50.727222,95.379959 62.038162,95.092575 
	C62.895168,97.105873 63.668140,98.921745 64.776283,100.362442 
	C65.111458,99.987251 65.063560,99.958336 65.048141,99.934990 
z"/>
<path fill="#0C0C0D" opacity="1.000000" stroke="none" 
	d="
M45.723259,25.586060 
	C48.876266,23.869028 51.588299,22.031218 54.572704,20.934757 
	C56.283546,20.306198 58.705730,20.345093 60.280529,21.134756 
	C61.103508,21.547428 61.539654,25.042107 60.818359,25.713388 
	C59.555752,26.888439 57.295212,27.191017 55.399010,27.426918 
	C53.648331,27.644718 51.589737,26.692482 50.073780,27.289349 
	C35.541786,33.010906 28.934002,44.385220 27.875803,58.537685 
	C24.607710,60.563557 21.863489,62.264687 18.356113,64.438889 
	C15.827832,63.485275 12.152256,62.098934 7.444124,60.323135 
	C12.825510,58.263371 17.328453,56.453979 21.895840,54.825321 
	C24.447401,53.915474 25.631771,52.564991 26.281591,49.651863 
	C28.725016,38.698078 35.360924,30.803255 45.723259,25.586060 
z"/>
<path fill="#066637" opacity="1.000000" stroke="none" 
	d="
M50.249527,84.946327 
	C57.518955,75.593697 67.400208,71.013168 79.047073,70.028244 
	C82.007622,69.777885 85.007568,69.993423 88.449089,69.993057 
	C87.028542,73.192146 85.148323,76.393074 82.538605,79.803619 
	C71.596428,79.458572 61.618629,80.028442 52.784660,86.075073 
	C52.025745,85.761375 51.266830,85.447678 50.249527,84.946327 
z"/>
<path fill="#063736" opacity="1.000000" stroke="none" 
	d="
M53.025906,86.398041 
	C61.618629,80.028442 71.596428,79.458572 82.257179,80.010323 
	C74.344353,88.611160 64.316353,89.905014 53.025906,86.398041 
z"/>
<path fill="#076837" opacity="1.000000" stroke="none" 
	d="
M36.314575,68.317261 
	C42.152222,69.147545 47.996109,70.325478 53.839996,71.503410 
	C53.889183,72.106056 53.938370,72.708702 53.987556,73.311356 
	C52.947243,74.186127 51.906925,75.060905 50.094822,75.966660 
	C46.221577,75.971840 43.120121,75.946022 40.018661,75.920212 
	C38.786045,73.501778 37.553429,71.083351 36.314575,68.317261 
z"/>
<path fill="#063934" opacity="1.000000" stroke="none" 
	d="
M40.070290,76.255882 
	C43.120121,75.946022 46.221577,75.971840 49.762531,76.005966 
	C49.016830,77.943726 47.831631,79.873154 46.361900,81.992897 
	C44.092216,80.319321 42.107067,78.455437 40.070290,76.255882 
z"/>
<path fill="#F96805" opacity="1.000000" stroke="none" 
	d="
M54.978779,67.023987 
	C52.516983,65.753517 50.055187,64.483055 47.309483,63.004875 
	C44.938175,51.746891 55.496319,42.744717 64.552147,43.893570 
	C70.827293,44.689651 76.245132,48.254726 78.198326,54.273640 
	C78.754845,55.988579 79.226295,57.731121 79.863388,59.826363 
	C77.899765,60.796646 75.809502,61.401569 73.349167,61.566418 
	C72.667213,55.460022 70.151848,52.028309 65.505768,50.930466 
	C60.223866,49.682381 56.076809,51.213188 54.124035,56.769836 
	C53.086189,59.723030 54.610828,63.576756 54.978779,67.023987 
z"/>
<path fill="#F83F03" opacity="1.000000" stroke="none" 
	d="
M54.987362,67.012985 
	C54.610828,63.576756 53.086189,59.723030 54.124035,56.769836 
	C56.076809,51.213188 60.223866,49.682381 65.505768,50.930466 
	C70.151848,52.028309 72.667213,55.460022 72.972137,61.523415 
	C67.870270,64.327621 62.775379,66.734764 57.240326,68.761627 
	C56.614380,68.166405 56.382233,68.030853 56.103733,67.974686 
	C56.103733,67.974686 56.022251,67.986900 55.912594,67.729965 
	C55.589756,67.207489 55.314060,67.054726 54.975849,67.014748 
	C54.975849,67.014748 54.995945,67.001991 54.987362,67.012985 
z"/>
<path fill="#F96805" opacity="1.000000" stroke="none" 
	d="
M55.041290,67.264366 
	C55.314060,67.054726 55.589756,67.207489 55.910164,67.688843 
	C55.713837,67.774429 55.410286,67.644203 55.041290,67.264366 
z"/>
<path fill="#F96805" opacity="1.000000" stroke="none" 
	d="
M56.156197,68.196808 
	C56.382233,68.030853 56.614380,68.166405 56.911240,68.553772 
	C56.684158,68.800835 56.412945,68.698418 56.156197,68.196808 
z"/>
</svg>