<svg version="1.1" id="Layer_1" xmlns="http://www.w3.org/2000/svg" xmlns:xlink="http://www.w3.org/1999/xlink" x="0px" y="0px"
	 width="100%" viewBox="0 0 500 500" enable-background="new 0 0 500 500" xml:space="preserve">
<path fill="#019934" opacity="1.000000" stroke="none" 
	d="
M1.000000,271.000000 
	C1.000000,258.312439 1.000000,245.624878 1.357370,232.255737 
	C3.970711,217.804733 5.268672,203.796249 8.635800,190.304153 
	C33.249676,91.676216 114.544136,18.445297 215.121155,3.716034 
	C220.759109,2.890369 226.374237,1.908933 232.000000,1.000000 
	C244.020889,1.000000 256.041779,1.000000 268.740997,1.364091 
	C288.399597,3.136890 307.233917,5.997097 325.160278,12.270101 
	C421.747467,46.068993 479.956604,113.027443 498.162170,214.124985 
	C499.231140,220.061172 500.059601,226.040665 501.000000,232.000000 
	C501.000000,244.687561 501.000000,257.375122 500.628662,270.715637 
	C498.064667,284.646362 496.683136,298.118866 493.550110,311.170929 
	C470.058105,409.038757 387.049133,483.998444 286.880157,498.286255 
	C281.239197,499.090820 275.626068,500.090881 270.000000,501.000000 
	C257.312439,501.000000 244.624878,501.000000 231.288452,500.626465 
	C221.905685,499.064819 213.097015,498.270538 204.449280,496.628632 
	C99.707733,476.741638 19.647053,393.199127 3.734808,287.381287 
	C2.911702,281.907532 1.915576,276.459839 1.000000,271.000000 
M403.951752,294.680725 
	C403.670807,293.551819 403.380646,292.425079 403.110291,291.293640 
	C392.953979,248.793137 342.231689,229.690170 306.777130,255.258392 
	C300.539368,259.756775 295.349274,265.707855 290.471436,270.247162 
	C279.489838,266.945557 268.424469,263.618744 257.660828,260.382629 
	C266.296295,259.512970 274.495514,256.189545 280.731873,248.985962 
	C287.064941,241.670670 289.833130,233.154800 288.827667,223.587418 
	C287.256012,208.632370 275.963593,197.000168 260.870819,194.428574 
	C246.624832,192.001266 231.147598,199.563660 226.060318,213.715378 
	C216.721176,239.694855 229.493210,254.191620 252.041916,260.806244 
	C242.475540,263.803925 231.834824,267.138245 220.682755,270.632782 
	C220.746521,270.714294 220.017197,269.811188 219.318451,268.884949 
	C196.862686,239.118454 154.187546,235.186844 126.790833,260.511475 
	C111.419487,274.720245 105.745102,292.710876 106.844528,313.265991 
	C107.186295,319.655853 107.386581,320.164825 113.688904,320.168945 
	C138.348206,320.185089 163.007523,320.175659 187.666824,320.175690 
	C189.464508,320.175690 191.262192,320.175659 193.503632,320.175659 
	C193.503632,324.622131 193.556473,328.585083 193.488647,332.545929 
	C193.422058,336.436432 194.967239,338.238098 199.134583,338.227844 
	C236.956406,338.134766 274.778656,338.130402 312.600433,338.231201 
	C317.071472,338.243103 318.503174,336.244934 318.364655,332.158112 
	C318.231934,328.241699 318.335999,324.317230 318.335999,320.175659 
	C320.874329,320.175659 322.697052,320.175690 324.519806,320.175690 
	C349.012512,320.175690 373.505188,320.184174 397.997894,320.169922 
	C404.625885,320.166077 405.154907,319.733643 405.001282,312.969971 
	C404.869263,307.157532 404.368134,301.353455 403.951752,294.680725 
M121.538322,386.959259 
	C77.805649,340.407593 60.583267,285.117249 72.714569,222.812225 
	C86.612740,151.432678 129.740524,103.512695 198.519623,79.211067 
	C205.321411,76.807800 212.504425,75.483459 220.782211,73.327057 
	C214.879852,81.409981 209.829941,88.325523 204.731689,95.307289 
	C206.654678,96.642906 208.125458,97.664436 209.972672,98.947418 
	C217.832443,88.477295 225.592896,78.139496 233.580856,67.498611 
	C222.381210,60.349224 211.512512,53.411102 200.332809,46.274441 
	C199.021866,48.348801 198.007507,49.953857 196.850830,51.784100 
	C203.957169,56.304607 210.754776,60.628727 218.418381,65.503723 
	C216.669312,65.846809 216.079666,65.958618 215.491608,66.078384 
	C189.697830,71.331512 165.676041,81.260193 144.646561,96.867668 
	C80.700745,144.326416 51.831120,208.172302 63.597519,287.074493 
	C74.176323,358.013000 114.838051,407.994934 180.632401,437.052307 
	C196.850891,444.215027 213.931000,448.472382 231.486679,450.851074 
	C234.456558,451.253479 237.122894,450.750824 237.522797,447.344269 
	C237.875061,444.343597 235.838516,442.926514 232.921204,442.624695 
	C230.275467,442.350983 227.633850,441.983002 225.013809,441.523315 
	C184.923904,434.489258 150.596146,416.468384 121.538322,386.959259 
M313.351929,432.793121 
	C312.106750,435.306580 310.861572,437.820007 309.405182,440.759857 
	C321.511200,445.945343 333.377411,451.028076 345.580933,456.255310 
	C346.467529,454.087250 347.249542,452.174988 348.127686,450.027649 
	C340.422546,446.724365 333.060394,443.568115 324.826904,440.038300 
	C327.582245,438.798218 329.328918,437.961151 331.113983,437.216003 
	C414.779175,402.292145 463.767273,314.492554 447.966553,225.150009 
	C434.891815,151.220871 391.590302,101.332466 322.232910,73.607475 
	C318.392944,72.072495 314.374298,70.812477 310.320404,70.078766 
	C308.913116,69.824059 305.888458,71.459946 305.819183,72.396324 
	C305.693817,74.091202 307.017670,76.070938 308.168884,77.607857 
	C308.746552,78.379082 310.265045,78.471283 311.375549,78.813873 
	C328.651215,84.143478 344.952484,91.627777 359.699036,102.074440 
	C422.988495,146.909561 450.497681,208.452026 440.336670,284.909912 
	C432.452179,344.238159 399.959808,388.821564 348.540741,419.360443 
	C340.216919,424.304138 331.200470,428.081635 322.504150,432.398193 
	C322.207275,432.030548 321.910400,431.662872 321.613495,431.295227 
	C325.454773,423.734955 329.296082,416.174652 333.226593,408.438721 
	C331.008850,407.380157 329.282288,406.556061 327.329254,405.623840 
	C322.671692,414.728973 318.212830,423.445648 313.351929,432.793121 
M160.029648,177.335342 
	C158.188797,178.093048 156.291733,178.738312 154.515869,179.626022 
	C138.607269,187.578339 131.868500,206.244659 139.000061,222.493790 
	C146.068512,238.599091 164.489380,246.252090 181.156662,240.007843 
	C197.259293,233.975143 206.112610,215.742233 200.813110,199.187164 
	C195.445847,182.420425 178.048309,172.599731 160.029648,177.335342 
M365.334351,185.157089 
	C350.592896,172.254379 330.975342,173.070541 318.002930,187.126236 
	C306.152161,199.966614 306.982452,220.922897 319.823700,233.081985 
	C332.805481,245.374100 353.246460,245.209641 365.828644,232.711853 
	C378.969940,219.658737 378.973511,199.486404 365.334351,185.157089 
z"/>
<path fill="none" opacity="1.000000" stroke="none" 
	d="
M501.000000,231.531342 
	C500.059601,226.040665 499.231140,220.061172 498.162170,214.124985 
	C479.956604,113.027443 421.747467,46.068993 325.160278,12.270101 
	C307.233917,5.997097 288.399597,3.136890 269.209656,1.364091 
	C346.260223,1.000000 423.520416,1.000000 501.000000,1.000000 
	C501.000000,77.687424 501.000000,154.375046 501.000000,231.531342 
z"/>
<path fill="none" opacity="1.000000" stroke="none" 
	d="
M231.531342,1.000000 
	C226.374237,1.908933 220.759109,2.890369 215.121155,3.716034 
	C114.544136,18.445297 33.249676,91.676216 8.635800,190.304153 
	C5.268672,203.796249 3.970711,217.804733 1.357370,231.787079 
	C1.000000,155.072952 1.000000,78.145912 1.000000,1.000000 
	C77.687424,1.000000 154.375046,1.000000 231.531342,1.000000 
z"/>
<path fill="none" opacity="1.000000" stroke="none" 
	d="
M270.468658,501.000000 
	C275.626068,500.090881 281.239197,499.090820 286.880157,498.286255 
	C387.049133,483.998444 470.058105,409.038757 493.550110,311.170929 
	C496.683136,298.118866 498.064667,284.646362 500.628662,271.184265 
	C501.000000,347.593872 501.000000,424.187714 501.000000,501.000000 
	C424.312592,501.000000 347.624939,501.000000 270.468658,501.000000 
z"/>
<path fill="none" opacity="1.000000" stroke="none" 
	d="
M1.000000,271.468658 
	C1.915576,276.459839 2.911702,281.907532 3.734808,287.381287 
	C19.647053,393.199127 99.707733,476.741638 204.449280,496.628632 
	C213.097015,498.270538 221.905685,499.064819 230.819794,500.626465 
	C154.406296,501.000000 77.812592,501.000000 1.000000,501.000000 
	C1.000000,424.645905 1.000000,348.291626 1.000000,271.468658 
z"/>
<path fill="#FBFDFC" opacity="1.000000" stroke="none" 
	d="
M403.990967,295.113220 
	C404.368134,301.353455 404.869263,307.157532 405.001282,312.969971 
	C405.154907,319.733643 404.625885,320.166077 397.997894,320.169922 
	C373.505188,320.184174 349.012512,320.175690 324.519806,320.175690 
	C322.697052,320.175690 320.874329,320.175659 318.335999,320.175659 
	C318.335999,324.317230 318.231934,328.241699 318.364655,332.158112 
	C318.503174,336.244934 317.071472,338.243103 312.600433,338.231201 
	C274.778656,338.130402 236.956406,338.134766 199.134583,338.227844 
	C194.967239,338.238098 193.422058,336.436432 193.488647,332.545929 
	C193.556473,328.585083 193.503632,324.622131 193.503632,320.175659 
	C191.262192,320.175659 189.464508,320.175690 187.666824,320.175690 
	C163.007523,320.175659 138.348206,320.185089 113.688904,320.168945 
	C107.386581,320.164825 107.186295,319.655853 106.844528,313.265991 
	C105.745102,292.710876 111.419487,274.720245 126.790833,260.511475 
	C154.187546,235.186844 196.862686,239.118454 219.318451,268.884949 
	C220.017197,269.811188 220.746521,270.714294 220.682755,270.632782 
	C231.834824,267.138245 242.475540,263.803925 252.041916,260.806244 
	C229.493210,254.191620 216.721176,239.694855 226.060318,213.715378 
	C231.147598,199.563660 246.624832,192.001266 260.870819,194.428574 
	C275.963593,197.000168 287.256012,208.632370 288.827667,223.587418 
	C289.833130,233.154800 287.064941,241.670670 280.731873,248.985962 
	C274.495514,256.189545 266.296295,259.512970 257.660828,260.382629 
	C268.424469,263.618744 279.489838,266.945557 290.471436,270.247162 
	C295.349274,265.707855 300.539368,259.756775 306.777130,255.258392 
	C342.231689,229.690170 392.953979,248.793137 403.110291,291.293640 
	C403.380646,292.425079 403.670807,293.551819 403.990967,295.113220 
M263.619171,270.687103 
	C229.028381,265.359772 198.243317,294.839233 202.224396,329.727295 
	C238.056961,329.727295 273.914978,329.727295 309.746796,329.727295 
	C312.553680,300.918762 293.124451,275.755920 263.619171,270.687103 
M341.500000,311.994324 
	C359.902771,311.994324 378.305511,311.994324 396.657532,311.994324 
	C398.389282,284.554077 382.456940,261.016418 357.989685,254.125900 
	C334.524231,247.517502 307.593719,257.689026 297.624725,276.527893 
	C301.857544,282.129791 306.512390,287.211792 309.871918,293.040375 
	C313.215210,298.840851 315.257690,305.391113 318.030884,311.994324 
	C325.211578,311.994324 332.855774,311.994324 341.500000,311.994324 
M155.555893,253.867111 
	C129.019104,261.475281 112.033783,285.941620 115.512978,311.768005 
	C141.889084,311.768005 168.289948,311.768005 194.761276,311.768005 
	C197.426392,297.680054 204.796829,286.450195 214.781586,276.915161 
	C201.148422,256.802155 179.407455,248.229507 155.555893,253.867111 
M240.198090,246.360733 
	C241.579147,247.276566 242.897263,248.309845 244.351456,249.089218 
	C253.959778,254.238693 265.502563,252.518936 273.310760,244.833130 
	C281.272064,236.996643 283.092621,225.296310 277.874603,215.502258 
	C272.766998,205.915451 262.199158,200.803406 251.508652,202.820526 
	C241.604935,204.689209 235.061829,210.660751 232.194580,220.115662 
	C229.168289,230.095047 232.113388,238.760574 240.198090,246.360733 
z"/>
<path fill="#F8FCF9" opacity="1.000000" stroke="none" 
	d="
M121.789581,387.209167 
	C150.596146,416.468384 184.923904,434.489258 225.013809,441.523315 
	C227.633850,441.983002 230.275467,442.350983 232.921204,442.624695 
	C235.838516,442.926514 237.875061,444.343597 237.522797,447.344269 
	C237.122894,450.750824 234.456558,451.253479 231.486679,450.851074 
	C213.931000,448.472382 196.850891,444.215027 180.632401,437.052307 
	C114.838051,407.994934 74.176323,358.013000 63.597519,287.074493 
	C51.831120,208.172302 80.700745,144.326416 144.646561,96.867668 
	C165.676041,81.260193 189.697830,71.331512 215.491608,66.078384 
	C216.079666,65.958618 216.669312,65.846809 218.418381,65.503723 
	C210.754776,60.628727 203.957169,56.304607 196.850830,51.784100 
	C198.007507,49.953857 199.021866,48.348801 200.332809,46.274441 
	C211.512512,53.411102 222.381210,60.349224 233.580856,67.498611 
	C225.592896,78.139496 217.832443,88.477295 209.972672,98.947418 
	C208.125458,97.664436 206.654678,96.642906 204.731689,95.307289 
	C209.829941,88.325523 214.879852,81.409981 220.782211,73.327057 
	C212.504425,75.483459 205.321411,76.807800 198.519623,79.211067 
	C129.740524,103.512695 86.612740,151.432678 72.714569,222.812225 
	C60.583267,285.117249 77.805649,340.407593 121.789581,387.209167 
z"/>
<path fill="#F7FCF9" opacity="1.000000" stroke="none" 
	d="
M313.552948,432.477722 
	C318.212830,423.445648 322.671692,414.728973 327.329254,405.623840 
	C329.282288,406.556061 331.008850,407.380157 333.226593,408.438721 
	C329.296082,416.174652 325.454773,423.734955 321.613495,431.295227 
	C321.910400,431.662872 322.207275,432.030548 322.504150,432.398193 
	C331.200470,428.081635 340.216919,424.304138 348.540741,419.360443 
	C399.959808,388.821564 432.452179,344.238159 440.336670,284.909912 
	C450.497681,208.452026 422.988495,146.909561 359.699036,102.074440 
	C344.952484,91.627777 328.651215,84.143478 311.375549,78.813873 
	C310.265045,78.471283 308.746552,78.379082 308.168884,77.607857 
	C307.017670,76.070938 305.693817,74.091202 305.819183,72.396324 
	C305.888458,71.459946 308.913116,69.824059 310.320404,70.078766 
	C314.374298,70.812477 318.392944,72.072495 322.232910,73.607475 
	C391.590302,101.332466 434.891815,151.220871 447.966553,225.150009 
	C463.767273,314.492554 414.779175,402.292145 331.113983,437.216003 
	C329.328918,437.961151 327.582245,438.798218 324.826904,440.038300 
	C333.060394,443.568115 340.422546,446.724365 348.127686,450.027649 
	C347.249542,452.174988 346.467529,454.087250 345.580933,456.255310 
	C333.377411,451.028076 321.511200,445.945343 309.405182,440.759857 
	C310.861572,437.820007 312.106750,435.306580 313.552948,432.477722 
z"/>
<path fill="#F7FCF9" opacity="1.000000" stroke="none" 
	d="
M160.423950,177.219482 
	C178.048309,172.599731 195.445847,182.420425 200.813110,199.187164 
	C206.112610,215.742233 197.259293,233.975143 181.156662,240.007843 
	C164.489380,246.252090 146.068512,238.599091 139.000061,222.493790 
	C131.868500,206.244659 138.607269,187.578339 154.515869,179.626022 
	C156.291733,178.738312 158.188797,178.093048 160.423950,177.219482 
M181.839249,230.559067 
	C183.298782,229.458786 184.862686,228.471832 186.200684,227.239609 
	C194.089722,219.974396 196.322098,208.056183 191.680359,198.371155 
	C187.225632,189.076340 176.357361,183.016663 166.720093,184.431915 
	C155.959534,186.012115 148.527176,191.877014 145.526703,202.296387 
	C142.594986,212.476913 145.339233,221.569839 153.631470,228.294342 
	C162.054184,235.124664 171.432831,235.869583 181.839249,230.559067 
z"/>
<path fill="#F7FCF8" opacity="1.000000" stroke="none" 
	d="
M365.585693,185.407700 
	C378.973511,199.486404 378.969940,219.658737 365.828644,232.711853 
	C353.246460,245.209641 332.805481,245.374100 319.823700,233.081985 
	C306.982452,220.922897 306.152161,199.966614 318.002930,187.126236 
	C330.975342,173.070541 350.592896,172.254379 365.585693,185.407700 
M339.214783,184.587036 
	C324.944061,187.222961 316.045929,199.182327 318.074127,213.000580 
	C319.966888,225.895737 332.353516,235.364609 345.402954,233.891861 
	C358.704651,232.390640 368.650055,220.142181 367.273834,206.956390 
	C365.801117,192.846222 354.397705,183.413101 339.214783,184.587036 
z"/>
<path fill="#019934" opacity="1.000000" stroke="none" 
	d="
M264.050720,270.746033 
	C293.124451,275.755920 312.553680,300.918762 309.746796,329.727295 
	C273.914978,329.727295 238.056961,329.727295 202.224396,329.727295 
	C198.243317,294.839233 229.028381,265.359772 264.050720,270.746033 
z"/>
<path fill="#019A34" opacity="1.000000" stroke="none" 
	d="
M341.000000,311.994324 
	C332.855774,311.994324 325.211578,311.994324 318.030884,311.994324 
	C315.257690,305.391113 313.215210,298.840851 309.871918,293.040375 
	C306.512390,287.211792 301.857544,282.129791 297.624725,276.527893 
	C307.593719,257.689026 334.524231,247.517502 357.989685,254.125900 
	C382.456940,261.016418 398.389282,284.554077 396.657532,311.994324 
	C378.305511,311.994324 359.902771,311.994324 341.000000,311.994324 
z"/>
<path fill="#019934" opacity="1.000000" stroke="none" 
	d="
M155.952148,253.745605 
	C179.407455,248.229507 201.148422,256.802155 214.781586,276.915161 
	C204.796829,286.450195 197.426392,297.680054 194.761276,311.768005 
	C168.289948,311.768005 141.889084,311.768005 115.512978,311.768005 
	C112.033783,285.941620 129.019104,261.475281 155.952148,253.745605 
z"/>
<path fill="#029A35" opacity="1.000000" stroke="none" 
	d="
M239.919678,246.130341 
	C232.113388,238.760574 229.168289,230.095047 232.194580,220.115662 
	C235.061829,210.660751 241.604935,204.689209 251.508652,202.820526 
	C262.199158,200.803406 272.766998,205.915451 277.874603,215.502258 
	C283.092621,225.296310 281.272064,236.996643 273.310760,244.833130 
	C265.502563,252.518936 253.959778,254.238693 244.351456,249.089218 
	C242.897263,248.309845 241.579147,247.276566 239.919678,246.130341 
z"/>
<path fill="#029A35" opacity="1.000000" stroke="none" 
	d="
M181.502960,230.736847 
	C171.432831,235.869583 162.054184,235.124664 153.631470,228.294342 
	C145.339233,221.569839 142.594986,212.476913 145.526703,202.296387 
	C148.527176,191.877014 155.959534,186.012115 166.720093,184.431915 
	C176.357361,183.016663 187.225632,189.076340 191.680359,198.371155 
	C196.322098,208.056183 194.089722,219.974396 186.200684,227.239609 
	C184.862686,228.471832 183.298782,229.458786 181.502960,230.736847 
z"/>
<path fill="#029A35" opacity="1.000000" stroke="none" 
	d="
M339.620148,184.501526 
	C354.397705,183.413101 365.801117,192.846222 367.273834,206.956390 
	C368.650055,220.142181 358.704651,232.390640 345.402954,233.891861 
	C332.353516,235.364609 319.966888,225.895737 318.074127,213.000580 
	C316.045929,199.182327 324.944061,187.222961 339.620148,184.501526 
z"/>
</svg>