<svg width="103" height="15" viewBox="0 0 103 15" fill="none" xmlns="http://www.w3.org/2000/svg">
    <path d="M3.53409 14.1304C3.1824 14.3104 2.78334 13.995 2.8544 13.5922L3.61062 9.29223L0.40078 6.24132C0.101025 5.95586 0.256825 5.43405 0.658625 5.37768L5.12125 4.74496L7.11111 0.811319C7.2906 0.456774 7.77622 0.456774 7.95571 0.811319L9.94558 4.74496L14.4082 5.37768C14.81 5.43405 14.9658 5.95586 14.6651 6.24132L11.4562 9.29223L12.2124 13.5922C12.2835 13.995 11.8844 14.3104 11.5327 14.1304L7.53205 12.0795L3.53318 14.1304H3.53409Z" fill="#006633"/>
    <path d="M25.4008 14.1304C25.0491 14.3104 24.65 13.995 24.7211 13.5922L25.4773 9.29223L22.2675 6.24132C21.9677 5.95586 22.1235 5.43405 22.5253 5.37768L26.9879 4.74496L28.9778 0.811319C29.1573 0.456774 29.6429 0.456774 29.8224 0.811319L31.8123 4.74496L36.2749 5.37768C36.6767 5.43405 36.8325 5.95586 36.5318 6.24132L33.3229 9.29223L34.0791 13.5922C34.1502 13.995 33.7511 14.3104 33.3994 14.1304L29.3987 12.0795L25.3999 14.1304H25.4008Z" fill="#006633"/>
    <path d="M47.2675 14.1304C46.9158 14.3104 46.5167 13.995 46.5878 13.5922L47.344 9.29223L44.1342 6.24132C43.8344 5.95586 43.9902 5.43405 44.392 5.37768L48.8546 4.74496L50.8445 0.811319C51.024 0.456774 51.5096 0.456774 51.6891 0.811319L53.679 4.74496L58.1416 5.37768C58.5434 5.43405 58.6992 5.95586 58.3985 6.24132L55.1896 9.29223L55.9458 13.5922C56.0169 13.995 55.6178 14.3104 55.2661 14.1304L51.2654 12.0795L47.2666 14.1304H47.2675Z" fill="#006633"/>
    <path d="M69.1339 14.1304C68.7823 14.3104 68.3832 13.995 68.4543 13.5922L69.2105 9.29223L66.0006 6.24132C65.7009 5.95586 65.8567 5.43405 66.2585 5.37768L70.7211 4.74496L72.711 0.811319C72.8905 0.456774 73.3761 0.456774 73.5556 0.811319L75.5454 4.74496L80.0081 5.37768C80.4099 5.43405 80.5657 5.95586 80.265 6.24132L77.0561 9.29223L77.8123 13.5922C77.8833 13.995 77.4843 14.3104 77.1326 14.1304L73.1319 12.0795L69.133 14.1304H69.1339Z" fill="#006633"/>
    <path d="M91.0006 14.1304C90.649 14.3104 90.2499 13.995 90.321 13.5922L91.0772 9.29223L87.8673 6.24132C87.5676 5.95586 87.7234 5.43405 88.1252 5.37768L92.5878 4.74496L94.5777 0.811319C94.7572 0.456774 95.2428 0.456774 95.4223 0.811319L97.4121 4.74496L101.875 5.37768C102.277 5.43405 102.432 5.95586 102.132 6.24132L98.9228 9.29223L99.679 13.5922C99.75 13.995 99.351 14.3104 98.9993 14.1304L94.9986 12.0795L91.0006 14.1304Z" fill="#006633"/>
</svg>
