<svg version="1.1" id="Layer_1" xmlns="http://www.w3.org/2000/svg" xmlns:xlink="http://www.w3.org/1999/xlink" x="0px" y="0px"
	 width="100%" viewBox="0 0 500 500" enable-background="new 0 0 500 500" xml:space="preserve">
<path fill="#019934" opacity="1.000000" stroke="none" 
	d="
M270.000000,501.000000 
	C257.312439,501.000000 244.624878,501.000000 231.288788,500.626221 
	C221.906448,499.064178 213.097809,498.269897 204.450165,496.627686 
	C99.693016,476.734039 19.640249,393.199707 3.735691,287.380432 
	C2.913023,281.906891 1.915900,276.459534 0.999999,271.000000 
	C1.000000,258.312439 1.000000,245.624878 1.357621,232.256058 
	C3.971357,217.805481 5.269601,203.797104 8.636714,190.305038 
	C33.250942,91.675598 114.551323,18.439369 215.121979,3.716960 
	C220.759735,2.891655 226.374527,1.909272 232.000000,1.000000 
	C244.020889,1.000000 256.041779,1.000000 268.740662,1.364337 
	C288.398773,3.138372 307.233185,5.997910 325.159637,12.270854 
	C421.747223,46.069431 479.955750,113.028297 498.161255,214.125809 
	C499.230194,220.061783 500.059296,226.040939 501.000000,232.000000 
	C501.000000,244.687561 501.000000,257.375122 500.628418,270.715271 
	C498.064026,284.645660 496.682343,298.118164 493.549194,311.170258 
	C470.055542,409.039886 387.040009,484.005280 286.879303,498.285248 
	C281.238495,499.089447 275.625763,500.090515 270.000000,501.000000 
M248.500000,276.998688 
	C315.922516,276.998688 383.345032,276.998688 450.710175,276.998688 
	C450.710175,233.953156 450.710175,191.535522 450.710175,149.165070 
	C361.035339,149.165070 271.648865,149.165070 182.292831,149.165070 
	C182.292831,191.904312 182.292831,234.312134 182.292831,276.998688 
	C204.221222,276.998688 225.860611,276.998688 248.500000,276.998688 
M164.973343,214.500000 
	C164.973343,203.266113 164.973343,192.032227 164.973343,180.458099 
	C138.416748,182.323318 112.676483,184.394150 86.898872,185.760010 
	C80.312744,186.108978 76.964714,188.563248 74.762512,194.464035 
	C68.257202,211.895004 61.385571,229.188965 54.748013,246.571198 
	C53.929657,248.714264 53.203968,251.068375 53.209728,253.322708 
	C53.256565,271.650574 53.333900,289.981293 53.728012,308.304108 
	C53.926033,317.510406 57.615696,320.143707 66.943192,318.668488 
	C69.240746,289.591522 89.520081,278.082642 107.050812,277.680298 
	C116.835152,277.455750 125.882858,279.612030 133.807770,285.541931 
	C144.999786,293.916473 149.327957,305.812622 150.395981,319.480682 
	C205.762329,319.480682 260.700592,319.480682 315.947418,319.480682 
	C316.263916,306.476959 321.125244,295.461151 332.251190,285.928131 
	C275.372437,285.928131 220.312363,285.928131 164.973343,285.928131 
	C164.973343,262.111511 164.973343,238.805756 164.973343,214.500000 
M103.287743,286.620056 
	C89.774384,288.943512 81.079231,297.078796 77.309303,309.864960 
	C73.553108,322.604523 77.095901,334.017303 86.851471,342.998016 
	C97.994164,353.255707 115.219574,354.189850 127.462418,345.731262 
	C139.507645,337.409241 144.646301,321.394135 139.665298,307.699799 
	C134.306992,292.968109 120.352646,284.606995 103.287743,286.620056 
M337.196259,344.358582 
	C352.541656,355.658875 372.887573,353.048279 383.814087,338.377075 
	C394.633209,323.850067 391.774811,303.698120 377.317535,292.575439 
	C364.018555,282.343903 343.745117,284.412292 333.086517,297.088135 
	C320.793701,311.707458 322.243317,330.858795 337.196259,344.358582 
M430.499695,286.152283 
	C415.200104,286.152283 399.900513,286.152283 384.932587,286.152283 
	C388.593140,291.630920 392.679230,296.371307 395.155762,301.840485 
	C397.621246,307.285278 398.470917,313.461731 400.035461,319.341217 
	C407.882477,319.341217 416.323822,320.433929 424.331207,319.037781 
	C432.546143,317.605438 440.363190,313.810272 448.282318,310.856049 
	C449.371429,310.449738 450.763733,308.952759 450.795715,307.922821 
	C451.015808,300.834534 450.911438,293.736206 450.911438,286.152283 
	C444.045624,286.152283 437.772522,286.152283 430.499695,286.152283 
z"/>
<path fill="none" opacity="1.000000" stroke="none" 
	d="
M501.000000,231.531342 
	C500.059296,226.040939 499.230194,220.061783 498.161255,214.125809 
	C479.955750,113.028297 421.747223,46.069431 325.159637,12.270854 
	C307.233185,5.997910 288.398773,3.138372 269.209320,1.364337 
	C346.260223,1.000000 423.520416,1.000000 501.000000,1.000000 
	C501.000000,77.687424 501.000000,154.375046 501.000000,231.531342 
z"/>
<path fill="none" opacity="1.000000" stroke="none" 
	d="
M231.531342,1.000000 
	C226.374527,1.909272 220.759735,2.891655 215.121979,3.716960 
	C114.551323,18.439369 33.250942,91.675598 8.636714,190.305038 
	C5.269601,203.797104 3.971357,217.805481 1.357621,231.787399 
	C1.000000,155.072952 1.000000,78.145912 1.000000,1.000000 
	C77.687424,1.000000 154.375046,1.000000 231.531342,1.000000 
z"/>
<path fill="none" opacity="1.000000" stroke="none" 
	d="
M270.468658,501.000000 
	C275.625763,500.090515 281.238495,499.089447 286.879303,498.285248 
	C387.040009,484.005280 470.055542,409.039886 493.549194,311.170258 
	C496.682343,298.118164 498.064026,284.645660 500.628418,271.183899 
	C501.000000,347.593872 501.000000,424.187714 501.000000,501.000000 
	C424.312592,501.000000 347.624939,501.000000 270.468658,501.000000 
z"/>
<path fill="none" opacity="1.000000" stroke="none" 
	d="
M0.999999,271.468658 
	C1.915900,276.459534 2.913023,281.906891 3.735691,287.380432 
	C19.640249,393.199707 99.693016,476.734039 204.450165,496.627686 
	C213.097809,498.269897 221.906448,499.064178 230.820129,500.626221 
	C154.406296,501.000000 77.812592,501.000000 1.000000,501.000000 
	C1.000000,424.645905 1.000000,348.291626 0.999999,271.468658 
z"/>
<path fill="#FFFFFF" opacity="1.000000" stroke="none" 
	d="
M248.000000,276.998688 
	C225.860611,276.998688 204.221222,276.998688 182.292831,276.998688 
	C182.292831,234.312134 182.292831,191.904312 182.292831,149.165070 
	C271.648865,149.165070 361.035339,149.165070 450.710175,149.165070 
	C450.710175,191.535522 450.710175,233.953156 450.710175,276.998688 
	C383.345032,276.998688 315.922516,276.998688 248.000000,276.998688 
z"/>
<path fill="#FCFEFD" opacity="1.000000" stroke="none" 
	d="
M164.973343,215.000000 
	C164.973343,238.805756 164.973343,262.111511 164.973343,285.928131 
	C220.312363,285.928131 275.372437,285.928131 332.251190,285.928131 
	C321.125244,295.461151 316.263916,306.476959 315.947418,319.480682 
	C260.700592,319.480682 205.762329,319.480682 150.395981,319.480682 
	C149.327957,305.812622 144.999786,293.916473 133.807770,285.541931 
	C125.882858,279.612030 116.835152,277.455750 107.050812,277.680298 
	C89.520081,278.082642 69.240746,289.591522 66.943192,318.668488 
	C57.615696,320.143707 53.926033,317.510406 53.728012,308.304108 
	C53.333900,289.981293 53.256565,271.650574 53.209728,253.322708 
	C53.203968,251.068375 53.929657,248.714264 54.748013,246.571198 
	C61.385571,229.188965 68.257202,211.895004 74.762512,194.464035 
	C76.964714,188.563248 80.312744,186.108978 86.898872,185.760010 
	C112.676483,184.394150 138.416748,182.323318 164.973343,180.458099 
	C164.973343,192.032227 164.973343,203.266113 164.973343,215.000000 
M73.584496,225.084137 
	C71.582039,230.353790 69.539749,235.608734 67.586754,240.896637 
	C64.878532,248.229385 66.248833,250.109863 73.904549,249.320129 
	C84.814964,248.194611 95.713554,246.950684 106.610146,245.696091 
	C114.960983,244.734573 123.300911,243.678345 131.945816,242.627762 
	C131.945816,227.562927 131.945816,212.988831 131.945816,197.731400 
	C117.019913,198.768478 102.156837,199.887283 87.280106,200.777634 
	C83.292007,201.016296 81.371689,203.052094 80.192101,206.545837 
	C78.177040,212.514099 75.989220,218.424011 73.584496,225.084137 
z"/>
<path fill="#FDFEFD" opacity="1.000000" stroke="none" 
	d="
M103.709427,286.514282 
	C120.352646,284.606995 134.306992,292.968109 139.665298,307.699799 
	C144.646301,321.394135 139.507645,337.409241 127.462418,345.731262 
	C115.219574,354.189850 97.994164,353.255707 86.851471,342.998016 
	C77.095901,334.017303 73.553108,322.604523 77.309303,309.864960 
	C81.079231,297.078796 89.774384,288.943512 103.709427,286.514282 
z"/>
<path fill="#FDFEFE" opacity="1.000000" stroke="none" 
	d="
M336.913513,344.135498 
	C322.243317,330.858795 320.793701,311.707458 333.086517,297.088135 
	C343.745117,284.412292 364.018555,282.343903 377.317535,292.575439 
	C391.774811,303.698120 394.633209,323.850067 383.814087,338.377075 
	C372.887573,353.048279 352.541656,355.658875 336.913513,344.135498 
z"/>
<path fill="#FAFDFB" opacity="1.000000" stroke="none" 
	d="
M430.999542,286.152283 
	C437.772522,286.152283 444.045624,286.152283 450.911438,286.152283 
	C450.911438,293.736206 451.015808,300.834534 450.795715,307.922821 
	C450.763733,308.952759 449.371429,310.449738 448.282318,310.856049 
	C440.363190,313.810272 432.546143,317.605438 424.331207,319.037781 
	C416.323822,320.433929 407.882477,319.341217 400.035461,319.341217 
	C398.470917,313.461731 397.621246,307.285278 395.155762,301.840485 
	C392.679230,296.371307 388.593140,291.630920 384.932587,286.152283 
	C399.900513,286.152283 415.200104,286.152283 430.999542,286.152283 
z"/>
<path fill="#029A35" opacity="1.000000" stroke="none" 
	d="
M73.729233,224.721283 
	C75.989220,218.424011 78.177040,212.514099 80.192101,206.545837 
	C81.371689,203.052094 83.292007,201.016296 87.280106,200.777634 
	C102.156837,199.887283 117.019913,198.768478 131.945816,197.731400 
	C131.945816,212.988831 131.945816,227.562927 131.945816,242.627762 
	C123.300911,243.678345 114.960983,244.734573 106.610146,245.696091 
	C95.713554,246.950684 84.814964,248.194611 73.904549,249.320129 
	C66.248833,250.109863 64.878532,248.229385 67.586754,240.896637 
	C69.539749,235.608734 71.582039,230.353790 73.729233,224.721283 
z"/>
</svg>