<?xml version="1.0" standalone="no"?>
<!DOCTYPE svg PUBLIC "-//W3C//DTD SVG 20010904//EN"
 "http://www.w3.org/TR/2001/REC-SVG-20010904/DTD/svg10.dtd">
<svg version="1.0" xmlns="http://www.w3.org/2000/svg"
 width="128.000000pt" height="128.000000pt" viewBox="0 0 128.000000 128.000000"
 preserveAspectRatio="xMidYMid meet">
<metadata>
Created by potrace 1.14, written by Peter Selinger 2001-2017
</metadata>
<g transform="translate(0.000000,128.000000) scale(0.100000,-0.100000)"
fill="#000000" stroke="none">
<path d="M591 1135 c-13 -31 -22 -57 -20 -58 2 -1 13 -7 24 -13 11 -6 22 -24
25 -40 5 -26 9 -28 53 -31 44 -3 65 -11 153 -57 66 -34 150 -176 122 -204 -6
-6 -8 -22 -4 -35 7 -31 44 -42 68 -20 21 19 23 37 5 55 -7 7 -28 45 -46 83
-52 106 -146 184 -245 204 -28 6 -35 15 -66 89 -19 45 -37 82 -40 82 -3 0 -16
-25 -29 -55z"/>
<path d="M550 1052 c-8 -3 -18 -10 -22 -17 -4 -7 -29 -20 -55 -30 -100 -37
-203 -149 -218 -235 -8 -47 -23 -59 -110 -91 -33 -12 -64 -25 -68 -29 -5 -4
17 -17 48 -29 l57 -22 24 26 c13 14 32 25 44 25 11 0 20 6 21 13 4 83 43 174
97 230 53 55 154 107 168 86 8 -14 50 -11 64 6 6 8 10 22 8 31 -4 21 -39 43
-58 36z"/>
<path d="M503 905 c-142 -70 -203 -231 -140 -369 49 -107 143 -169 257 -170
241 -1 372 287 213 467 -82 93 -224 124 -330 72z"/>
<path d="M1037 674 c-10 -13 -28 -24 -41 -24 -21 0 -24 -6 -30 -51 -16 -118
-84 -215 -189 -268 -40 -20 -51 -22 -73 -13 -35 17 -41 15 -60 -13 -16 -24
-16 -27 1 -45 23 -25 43 -25 69 -1 12 10 42 26 69 36 26 10 68 36 92 57 51 45
111 140 120 192 6 31 13 37 63 56 98 38 112 45 112 50 0 4 -26 15 -58 27 l-57
20 -18 -23z"/>
<path d="M228 619 c-23 -13 -23 -34 1 -58 10 -10 22 -30 26 -43 4 -12 20 -46
36 -73 44 -80 105 -127 203 -161 56 -19 62 -24 77 -65 9 -24 24 -62 33 -84 17
-39 18 -39 27 -16 5 13 17 40 26 59 16 34 16 35 -10 54 -16 12 -27 29 -27 44
0 16 -6 24 -17 24 -91 2 -170 37 -232 100 -53 54 -93 137 -78 161 5 9 7 28 3
42 -7 29 -35 35 -68 16z"/>
</g>
</svg>
