<svg version="1.1" id="Layer_1" xmlns="http://www.w3.org/2000/svg" xmlns:xlink="http://www.w3.org/1999/xlink" x="0px" y="0px"
	 width="100%" viewBox="0 0 500 500" enable-background="new 0 0 500 500" xml:space="preserve">
<path fill="#019934" opacity="1.000000" stroke="none" 
	d="
M270.000000,501.000000 
	C257.312439,501.000000 244.624878,501.000000 231.288605,500.626343 
	C221.905975,499.064514 213.097290,498.270203 204.449570,496.628143 
	C99.705124,476.738586 19.643467,393.195038 3.735190,287.380920 
	C2.912271,281.907257 1.915717,276.459717 1.000000,271.000000 
	C1.000000,258.312439 1.000000,245.624878 1.357487,232.255875 
	C3.971014,217.805069 5.269099,203.796631 8.636233,190.304565 
	C33.250336,91.676010 114.547783,18.442390 215.121521,3.716463 
	C220.759384,2.890970 226.374374,1.909091 232.000000,1.000000 
	C244.020889,1.000000 256.041779,1.000000 268.740845,1.364206 
	C288.399231,3.137570 307.233582,5.997458 325.159973,12.270452 
	C421.747253,46.069290 479.956268,113.027748 498.161621,214.125397 
	C499.230591,220.061478 500.059418,226.040802 501.000000,232.000000 
	C501.000000,244.687561 501.000000,257.375122 500.628571,270.715454 
	C498.064423,284.645996 496.682892,298.118500 493.549805,311.170563 
	C470.056915,409.039398 387.044281,484.002228 286.879761,498.285828 
	C281.238861,499.090210 275.625946,500.090759 270.000000,501.000000 
M98.636383,295.882019 
	C100.825035,297.578766 103.013680,299.275543 105.559189,301.248962 
	C107.779144,283.614502 110.120766,266.670593 121.998024,253.133972 
	C111.094345,240.389740 110.577309,227.119614 120.446701,217.286423 
	C129.448807,208.317368 143.942184,207.910110 153.470688,216.358444 
	C164.027374,225.718414 163.906219,239.390030 153.055695,253.228119 
	C164.998322,266.757904 166.959869,283.830109 169.291504,300.863953 
	C193.505096,285.930237 202.585480,253.682068 190.149429,227.765427 
	C177.104736,200.580368 146.257980,187.540558 118.350014,197.413742 
	C76.723335,212.140289 65.832405,264.852295 98.636383,295.882019 
M322.269714,212.773102 
	C294.442719,242.675552 307.272217,286.608948 332.900787,300.419800 
	C336.914001,272.154816 339.900330,265.710175 349.125885,253.055328 
	C338.328308,239.433075 338.129944,226.395142 348.572388,216.671097 
	C357.651489,208.216614 371.663483,208.066315 380.816711,216.325256 
	C391.582947,226.039612 391.519409,238.936127 380.472260,253.313370 
	C392.444214,266.766937 394.364166,283.867889 396.736755,301.284668 
	C416.061218,287.180237 425.449280,268.899078 422.590393,245.736725 
	C419.639984,221.832779 406.120758,204.993393 383.327087,197.371475 
	C360.540894,189.752045 340.001404,195.309677 322.269714,212.773102 
M232.028015,142.528183 
	C231.401810,141.547882 230.686569,140.612717 230.163345,139.580231 
	C225.536713,130.450546 225.810028,121.573982 232.089523,113.327156 
	C238.093491,105.442200 246.378708,102.344109 255.931366,104.286682 
	C265.927307,106.319405 272.373932,112.801361 274.624390,122.840057 
	C276.729706,132.231598 273.402100,140.117340 266.581177,146.753922 
	C278.605347,160.462357 280.664093,177.378265 282.932678,194.283173 
	C302.619324,184.235062 313.752869,155.930115 307.666565,132.170792 
	C300.734314,105.109032 276.822540,87.239464 248.632782,88.054077 
	C222.576904,88.807022 198.915909,109.003647 193.959061,134.601135 
	C188.395828,163.330002 204.993881,187.225357 219.327042,194.125183 
	C221.564880,177.084122 223.920563,160.132477 235.814362,146.697342 
	C234.539886,145.322586 233.522217,144.224838 232.028015,142.528183 
M112.574303,292.067291 
	C112.110130,296.164124 111.645958,300.260956 111.169418,304.466980 
	C127.793312,312.525391 144.301590,312.994263 160.925278,305.735474 
	C162.183289,305.186127 163.432831,302.873230 163.390335,301.417969 
	C163.264847,297.122192 162.707565,292.804840 161.922806,288.569336 
	C160.043121,278.424438 157.660629,268.442352 151.283035,259.927887 
	C149.296570,257.275848 147.486725,256.239136 143.808807,257.287109 
	C140.128296,258.335815 135.619049,258.670258 132.081314,257.491760 
	C127.240311,255.879150 125.015770,257.834198 122.757385,261.247498 
	C116.739655,270.342621 114.341064,280.638702 112.574303,292.067291 
M390.960205,303.874786 
	C390.633057,300.067017 390.537262,296.222229 389.935394,292.458374 
	C388.118652,281.097168 385.906006,269.838074 378.901733,260.235718 
	C376.904205,257.497284 374.954224,256.018646 370.994690,257.355133 
	C367.689941,258.470642 363.264618,258.996613 360.253723,257.681519 
	C354.067719,254.979630 351.663910,258.609253 349.261688,262.637604 
	C342.262329,274.375000 340.284241,287.505859 338.904755,300.811066 
	C338.589264,303.853912 339.644165,305.159088 342.393219,306.267639 
	C358.769958,312.871643 374.837921,312.405487 390.960205,303.874786 
M230.203842,167.825241 
	C228.524658,176.615341 226.867477,185.409714 225.153763,194.193085 
	C224.593628,197.064011 225.495987,198.650452 228.378479,199.821182 
	C240.640671,204.801483 253.290146,206.215469 265.895813,202.434418 
	C279.928955,198.225250 277.746155,200.545883 276.185242,186.304504 
	C276.112762,185.643295 276.093414,184.973251 275.976196,184.320435 
	C273.974457,173.169830 271.742889,162.103134 264.422272,152.906174 
	C262.789703,150.855133 261.271576,150.092804 258.181122,150.687729 
	C253.607346,151.568176 248.613083,151.529205 244.032928,150.652969 
	C241.129715,150.097549 239.408707,150.649704 238.212692,152.691895 
	C235.462631,157.387558 233.048813,162.280121 230.203842,167.825241 
M347.061462,229.774643 
	C346.936615,230.765625 346.781158,231.753860 346.691803,232.748032 
	C345.988129,240.576736 350.044525,247.624069 357.160217,250.959808 
	C363.975189,254.154556 372.135620,252.839645 377.554230,247.673660 
	C383.048553,242.435501 384.976501,233.839676 381.785736,227.000046 
	C378.477539,219.908722 372.788330,215.929871 364.827362,216.019882 
	C355.959839,216.120163 350.299011,220.884888 347.061462,229.774643 
M144.022659,217.094772 
	C142.737717,216.761566 141.470947,216.294830 140.164856,216.117142 
	C132.548737,215.080994 125.374237,218.608932 121.574738,225.182556 
	C117.737717,231.821121 118.351166,239.767517 123.161575,245.737366 
	C128.002075,251.744568 135.455292,254.077927 142.869019,251.907089 
	C149.706497,249.905014 155.024734,243.514893 155.850311,236.309372 
	C156.745850,228.493210 152.808762,221.779892 144.022659,217.094772 
M248.009125,146.017487 
	C249.171860,146.069016 250.335281,146.177307 251.497208,146.162903 
	C259.249817,146.066864 265.686920,141.576187 268.363342,134.428406 
	C271.015228,127.346268 269.102051,119.236053 263.622131,114.329666 
	C257.853027,109.164375 249.508621,108.000221 242.740799,111.690552 
	C235.830887,115.458359 232.367035,121.378029 232.991913,129.307678 
	C233.691360,138.183441 238.906174,143.398880 248.009125,146.017487 
M254.049911,231.502106 
	C254.048721,226.668961 254.249786,221.821884 253.918137,217.011520 
	C253.823578,215.640060 252.182037,214.375244 251.249863,213.061523 
	C250.262451,214.362701 249.142990,215.589355 248.347488,216.998825 
	C247.989853,217.632523 248.275955,218.631561 248.275925,219.464813 
	C248.275299,246.297073 248.274689,273.129333 248.277618,299.961578 
	C248.277756,301.127747 247.953339,302.471222 248.420792,303.414642 
	C248.989777,304.563019 250.238434,305.374634 251.193100,306.331940 
	C252.136810,305.387268 253.380035,304.588135 253.931610,303.452942 
	C254.391785,302.505859 254.048721,301.164948 254.048798,299.998444 
	C254.050278,277.499359 254.049896,255.000259 254.049911,231.502106 
M225.790405,375.795624 
	C226.480728,379.804230 227.171066,383.812805 227.832428,387.653229 
	C235.051529,387.653229 241.493500,387.653229 248.235718,387.653229 
	C248.235718,380.722443 248.235718,373.997345 248.235718,367.260498 
	C240.385254,367.260498 232.808167,367.260498 224.915100,367.260498 
	C225.175369,370.013367 225.406998,372.463501 225.790405,375.795624 
M238.478104,340.454163 
	C235.035400,340.454163 231.592697,340.454163 227.566299,340.454163 
	C226.562149,347.516785 225.621750,354.130890 224.665680,360.855286 
	C233.091827,360.855286 240.633881,360.855286 248.188477,360.855286 
	C248.188477,353.952301 248.188477,347.397156 248.188477,340.454285 
	C245.031815,340.454285 242.232315,340.454285 238.478104,340.454163 
M258.690430,387.844299 
	C263.020111,387.843628 267.354187,387.948486 271.676392,387.768219 
	C272.758728,387.723114 274.606628,386.910156 274.738556,386.197510 
	C275.893860,379.957397 276.739655,373.659973 277.694214,367.265717 
	C269.135651,367.265717 261.721741,367.265717 253.995941,367.265717 
	C253.995941,373.330048 254.143005,379.133423 253.937225,384.924316 
	C253.825333,388.073578 255.640991,387.960754 258.690430,387.844299 
M276.830170,352.877258 
	C276.095551,348.845367 275.360962,344.813477 274.626190,340.780640 
	C267.468109,340.780640 260.867645,340.780640 254.275238,340.780640 
	C254.275238,347.662262 254.275238,354.260162 254.275238,360.912262 
	C261.970184,360.912262 269.387268,360.912262 276.897430,360.912262 
	C276.897430,358.370270 276.897430,356.081757 276.830170,352.877258 
M217.280670,387.856140 
	C218.746857,387.856140 220.213043,387.856140 221.764847,387.856140 
	C220.818558,380.714905 219.931320,374.019348 218.999237,366.985413 
	C215.974808,366.985413 213.007202,366.985413 210.039597,366.985413 
	C207.107712,366.985413 204.175827,366.985413 200.785675,366.985413 
	C201.558212,370.919952 202.020569,374.208557 202.863495,377.396545 
	C205.632874,387.870209 205.685928,387.856171 217.280670,387.856140 
M220.486893,349.224426 
	C220.957794,346.476227 221.428680,343.727997 221.986160,340.474396 
	C217.354431,340.474396 213.065002,340.341461 208.795242,340.572510 
	C207.789536,340.626923 206.293488,341.717224 205.971207,342.656403 
	C203.964645,348.503906 202.227798,354.443909 200.255569,360.825562 
	C207.428604,360.825562 213.287323,360.825562 219.287323,360.825562 
	C219.642380,357.014801 219.964951,353.552673 220.486893,349.224426 
M280.786346,385.694275 
	C281.207916,386.401337 281.605011,387.703827 282.054810,387.722290 
	C286.026947,387.885284 290.014648,387.938171 293.982330,387.729889 
	C294.846527,387.684540 296.118896,386.619781 296.404388,385.759460 
	C298.387115,379.783966 300.158905,373.738495 302.118011,367.323792 
	C294.830109,367.323792 288.960175,367.323792 283.467010,367.323792 
	C282.584503,373.434021 281.756836,379.164551 280.786346,385.694275 
M301.017548,358.669617 
	C299.654907,353.561798 298.452484,348.401672 296.813293,343.384186 
	C296.419586,342.179047 294.636261,340.735748 293.387329,340.629150 
	C289.303314,340.280701 285.170990,340.498444 280.714233,340.498444 
	C281.666992,347.715454 282.544098,354.359497 283.443207,361.170044 
	C288.667938,361.170044 293.650940,361.241577 298.627838,361.099304 
	C299.454742,361.075653 300.254944,360.119659 301.017548,358.669617 
M239.482758,393.430908 
	C236.309875,393.430908 233.137009,393.430908 229.200500,393.430908 
	C231.338226,398.675537 232.908707,402.836639 234.716217,406.892090 
	C237.555939,413.263458 241.036346,414.861450 248.188309,413.394012 
	C248.188309,406.843079 248.188309,400.313690 248.188309,393.430939 
	C245.346420,393.430939 242.886154,393.430939 239.482758,393.430908 
M248.561966,325.457306 
	C248.561966,321.724548 248.561966,317.991791 248.561966,313.237030 
	C244.048584,314.574280 238.913986,314.530273 237.251801,316.910797 
	C233.684921,322.019226 231.909470,328.378540 229.247711,334.581848 
	C236.249313,334.581848 242.157242,334.581848 248.561920,334.581848 
	C248.561920,331.675903 248.561920,329.046448 248.561966,325.457306 
M270.496490,393.469696 
	C265.073761,393.469696 259.651001,393.469696 254.204865,393.469696 
	C254.204865,400.644623 254.204865,407.223633 254.204865,415.399109 
	C258.621735,413.555267 263.562805,412.980896 265.757294,410.221863 
	C268.915710,406.250916 270.126068,400.710175 272.023407,395.783813 
	C272.245178,395.208008 271.553162,394.280304 270.496490,393.469696 
M253.985397,325.472595 
	C253.985397,328.542084 253.985397,331.611572 253.985397,334.510742 
	C260.628937,334.510742 266.475861,334.510742 272.942535,334.510742 
	C271.301910,330.323181 269.946503,326.608917 268.402679,322.974701 
	C264.947388,314.840942 263.298676,313.904846 253.985397,314.605408 
	C253.985397,317.887268 253.985397,321.191376 253.985397,325.472595 
M187.470978,306.011963 
	C186.363297,305.279388 185.344467,304.233246 184.126984,303.888214 
	C182.328964,303.378723 179.391190,302.500977 178.693909,303.304047 
	C176.417252,305.926025 179.183365,307.279175 181.064468,308.562073 
	C188.879547,313.892029 196.656647,319.282990 204.607712,324.403076 
	C205.936722,325.258881 208.057953,324.884430 209.813110,325.078461 
	C209.151093,323.342773 208.999146,320.915436 207.741241,319.987732 
	C201.334396,315.262878 194.641434,310.925964 187.470978,306.011963 
M320.801666,302.206390 
	C311.837891,308.227295 302.817108,314.167145 293.984711,320.374939 
	C292.919250,321.123749 292.872314,323.321777 292.353302,324.848114 
	C293.819550,324.952606 295.700195,325.698730 296.687256,325.061249 
	C305.476501,319.384949 314.206635,313.603058 322.730591,307.538025 
	C325.605011,305.492737 325.540100,303.072205 320.801666,302.206390 
M277.519104,406.913300 
	C282.224976,402.938324 286.930847,398.963379 291.636688,394.988403 
	C291.382721,394.469055 291.128723,393.949738 290.874756,393.430389 
	C287.471252,393.430389 284.059937,393.304413 280.669617,393.515625 
	C279.779816,393.571014 278.505615,394.493011 278.175812,395.322357 
	C276.444916,399.674957 274.960571,404.125641 273.166351,409.173065 
	C274.859985,408.273743 275.869751,407.737549 277.519104,406.913300 
M228.514420,406.708618 
	C227.186462,403.159058 225.991623,399.550201 224.452682,396.094604 
	C223.965393,395.000427 222.622375,393.666321 221.562073,393.563324 
	C218.210342,393.237854 214.807068,393.443207 211.423721,393.443207 
	C211.140167,394.054779 210.856613,394.666382 210.573059,395.277954 
	C216.107376,399.556946 221.630020,403.851410 227.216873,408.060638 
	C227.450516,408.236664 228.283432,407.617249 228.514420,406.708618 
M277.798615,321.598724 
	C276.414764,320.943726 275.030914,320.288696 273.102814,319.376099 
	C274.889679,324.088593 276.243317,327.957001 277.848694,331.717987 
	C278.357208,332.909271 279.454590,334.605164 280.425598,334.707062 
	C283.894012,335.071045 287.423889,334.849487 290.930542,334.849487 
	C291.128357,334.317505 291.326172,333.785522 291.524017,333.253540 
	C287.163452,329.489319 282.802917,325.725128 277.798615,321.598724 
M226.032135,327.681824 
	C227.034332,325.133728 228.036545,322.585602 229.514267,318.828491 
	C221.547455,323.249969 215.454681,327.644196 210.919098,334.677734 
	C215.628815,334.677734 219.576508,334.677734 223.581665,334.677734 
	C224.364029,332.495758 225.090652,330.469208 226.032135,327.681824 
z"/>
<path fill="none" opacity="1.000000" stroke="none" 
	d="
M501.000000,231.531342 
	C500.059418,226.040802 499.230591,220.061478 498.161621,214.125397 
	C479.956268,113.027748 421.747253,46.069290 325.159973,12.270452 
	C307.233582,5.997458 288.399231,3.137570 269.209503,1.364206 
	C346.260223,1.000000 423.520416,1.000000 501.000000,1.000000 
	C501.000000,77.687424 501.000000,154.375046 501.000000,231.531342 
z"/>
<path fill="none" opacity="1.000000" stroke="none" 
	d="
M231.531342,1.000000 
	C226.374374,1.909091 220.759384,2.890970 215.121521,3.716463 
	C114.547783,18.442390 33.250336,91.676010 8.636233,190.304565 
	C5.269099,203.796631 3.971014,217.805069 1.357487,231.787216 
	C1.000000,155.072952 1.000000,78.145912 1.000000,1.000000 
	C77.687424,1.000000 154.375046,1.000000 231.531342,1.000000 
z"/>
<path fill="none" opacity="1.000000" stroke="none" 
	d="
M270.468658,501.000000 
	C275.625946,500.090759 281.238861,499.090210 286.879761,498.285828 
	C387.044281,484.002228 470.056915,409.039398 493.549805,311.170563 
	C496.682892,298.118500 498.064423,284.645996 500.628571,271.184113 
	C501.000000,347.593872 501.000000,424.187714 501.000000,501.000000 
	C424.312592,501.000000 347.624939,501.000000 270.468658,501.000000 
z"/>
<path fill="none" opacity="1.000000" stroke="none" 
	d="
M1.000000,271.468658 
	C1.915717,276.459717 2.912271,281.907257 3.735190,287.380920 
	C19.643467,393.195038 99.705124,476.738586 204.449570,496.628143 
	C213.097290,498.270203 221.905975,499.064514 230.819946,500.626343 
	C154.406296,501.000000 77.812592,501.000000 1.000000,501.000000 
	C1.000000,424.645905 1.000000,348.291626 1.000000,271.468658 
z"/>
<path fill="#FCFEFD" opacity="1.000000" stroke="none" 
	d="
M98.369034,295.648743 
	C65.832405,264.852295 76.723335,212.140289 118.350014,197.413742 
	C146.257980,187.540558 177.104736,200.580368 190.149429,227.765427 
	C202.585480,253.682068 193.505096,285.930237 169.291504,300.863953 
	C166.959869,283.830109 164.998322,266.757904 153.055695,253.228119 
	C163.906219,239.390030 164.027374,225.718414 153.470688,216.358444 
	C143.942184,207.910110 129.448807,208.317368 120.446701,217.286423 
	C110.577309,227.119614 111.094345,240.389740 121.998024,253.133972 
	C110.120766,266.670593 107.779144,283.614502 105.559189,301.248962 
	C103.013680,299.275543 100.825035,297.578766 98.369034,295.648743 
z"/>
<path fill="#FDFEFD" opacity="1.000000" stroke="none" 
	d="
M322.509094,212.511841 
	C340.001404,195.309677 360.540894,189.752045 383.327087,197.371475 
	C406.120758,204.993393 419.639984,221.832779 422.590393,245.736725 
	C425.449280,268.899078 416.061218,287.180237 396.736755,301.284668 
	C394.364166,283.867889 392.444214,266.766937 380.472260,253.313370 
	C391.519409,238.936127 391.582947,226.039612 380.816711,216.325256 
	C371.663483,208.066315 357.651489,208.216614 348.572388,216.671097 
	C338.129944,226.395142 338.328308,239.433075 349.125885,253.055328 
	C339.900330,265.710175 336.914001,272.154816 332.900787,300.419800 
	C307.272217,286.608948 294.442719,242.675552 322.509094,212.511841 
z"/>
<path fill="#FCFEFD" opacity="1.000000" stroke="none" 
	d="
M232.266281,142.827637 
	C233.522217,144.224838 234.539886,145.322586 235.814362,146.697342 
	C223.920563,160.132477 221.564880,177.084122 219.327042,194.125183 
	C204.993881,187.225357 188.395828,163.330002 193.959061,134.601135 
	C198.915909,109.003647 222.576904,88.807022 248.632782,88.054077 
	C276.822540,87.239464 300.734314,105.109032 307.666565,132.170792 
	C313.752869,155.930115 302.619324,184.235062 282.932678,194.283173 
	C280.664093,177.378265 278.605347,160.462357 266.581177,146.753922 
	C273.402100,140.117340 276.729706,132.231598 274.624390,122.840057 
	C272.373932,112.801361 265.927307,106.319405 255.931366,104.286682 
	C246.378708,102.344109 238.093491,105.442200 232.089523,113.327156 
	C225.810028,121.573982 225.536713,130.450546 230.163345,139.580231 
	C230.686569,140.612717 231.401810,141.547882 232.266281,142.827637 
z"/>
<path fill="#FCFEFD" opacity="1.000000" stroke="none" 
	d="
M112.652641,291.635376 
	C114.341064,280.638702 116.739655,270.342621 122.757385,261.247498 
	C125.015770,257.834198 127.240311,255.879150 132.081314,257.491760 
	C135.619049,258.670258 140.128296,258.335815 143.808807,257.287109 
	C147.486725,256.239136 149.296570,257.275848 151.283035,259.927887 
	C157.660629,268.442352 160.043121,278.424438 161.922806,288.569336 
	C162.707565,292.804840 163.264847,297.122192 163.390335,301.417969 
	C163.432831,302.873230 162.183289,305.186127 160.925278,305.735474 
	C144.301590,312.994263 127.793312,312.525391 111.169418,304.466980 
	C111.645958,300.260956 112.110130,296.164124 112.652641,291.635376 
z"/>
<path fill="#FCFEFD" opacity="1.000000" stroke="none" 
	d="
M390.832397,304.275208 
	C374.837921,312.405487 358.769958,312.871643 342.393219,306.267639 
	C339.644165,305.159088 338.589264,303.853912 338.904755,300.811066 
	C340.284241,287.505859 342.262329,274.375000 349.261688,262.637604 
	C351.663910,258.609253 354.067719,254.979630 360.253723,257.681519 
	C363.264618,258.996613 367.689941,258.470642 370.994690,257.355133 
	C374.954224,256.018646 376.904205,257.497284 378.901733,260.235718 
	C385.906006,269.838074 388.118652,281.097168 389.935394,292.458374 
	C390.537262,296.222229 390.633057,300.067017 390.832397,304.275208 
z"/>
<path fill="#FCFEFD" opacity="1.000000" stroke="none" 
	d="
M230.351181,167.459015 
	C233.048813,162.280121 235.462631,157.387558 238.212692,152.691895 
	C239.408707,150.649704 241.129715,150.097549 244.032928,150.652969 
	C248.613083,151.529205 253.607346,151.568176 258.181122,150.687729 
	C261.271576,150.092804 262.789703,150.855133 264.422272,152.906174 
	C271.742889,162.103134 273.974457,173.169830 275.976196,184.320435 
	C276.093414,184.973251 276.112762,185.643295 276.185242,186.304504 
	C277.746155,200.545883 279.928955,198.225250 265.895813,202.434418 
	C253.290146,206.215469 240.640671,204.801483 228.378479,199.821182 
	C225.495987,198.650452 224.593628,197.064011 225.153763,194.193085 
	C226.867477,185.409714 228.524658,176.615341 230.351181,167.459015 
z"/>
<path fill="#FBFDFC" opacity="1.000000" stroke="none" 
	d="
M347.150177,229.393005 
	C350.299011,220.884888 355.959839,216.120163 364.827362,216.019882 
	C372.788330,215.929871 378.477539,219.908722 381.785736,227.000046 
	C384.976501,233.839676 383.048553,242.435501 377.554230,247.673660 
	C372.135620,252.839645 363.975189,254.154556 357.160217,250.959808 
	C350.044525,247.624069 345.988129,240.576736 346.691803,232.748032 
	C346.781158,231.753860 346.936615,230.765625 347.150177,229.393005 
z"/>
<path fill="#FBFDFC" opacity="1.000000" stroke="none" 
	d="
M144.388199,217.241440 
	C152.808762,221.779892 156.745850,228.493210 155.850311,236.309372 
	C155.024734,243.514893 149.706497,249.905014 142.869019,251.907089 
	C135.455292,254.077927 128.002075,251.744568 123.161575,245.737366 
	C118.351166,239.767517 117.737717,231.821121 121.574738,225.182556 
	C125.374237,218.608932 132.548737,215.080994 140.164856,216.117142 
	C141.470947,216.294830 142.737717,216.761566 144.388199,217.241440 
z"/>
<path fill="#FCFEFD" opacity="1.000000" stroke="none" 
	d="
M247.586639,145.971359 
	C238.906174,143.398880 233.691360,138.183441 232.991913,129.307678 
	C232.367035,121.378029 235.830887,115.458359 242.740799,111.690552 
	C249.508621,108.000221 257.853027,109.164375 263.622131,114.329666 
	C269.102051,119.236053 271.015228,127.346268 268.363342,134.428406 
	C265.686920,141.576187 259.249817,146.066864 251.497208,146.162903 
	C250.335281,146.177307 249.171860,146.069016 247.586639,145.971359 
z"/>
<path fill="#EEF8F1" opacity="1.000000" stroke="none" 
	d="
M254.049911,232.001633 
	C254.049896,255.000259 254.050278,277.499359 254.048798,299.998444 
	C254.048721,301.164948 254.391785,302.505859 253.931610,303.452942 
	C253.380035,304.588135 252.136810,305.387268 251.193100,306.331940 
	C250.238434,305.374634 248.989777,304.563019 248.420792,303.414642 
	C247.953339,302.471222 248.277756,301.127747 248.277618,299.961578 
	C248.274689,273.129333 248.275299,246.297073 248.275925,219.464813 
	C248.275955,218.631561 247.989853,217.632523 248.347488,216.998825 
	C249.142990,215.589355 250.262451,214.362701 251.249863,213.061523 
	C252.182037,214.375244 253.823578,215.640060 253.918137,217.011520 
	C254.249786,221.821884 254.048721,226.668961 254.049911,232.001633 
z"/>
<path fill="#F5FBF7" opacity="1.000000" stroke="none" 
	d="
M225.714523,375.354614 
	C225.406998,372.463501 225.175369,370.013367 224.915100,367.260498 
	C232.808167,367.260498 240.385254,367.260498 248.235718,367.260498 
	C248.235718,373.997345 248.235718,380.722443 248.235718,387.653229 
	C241.493500,387.653229 235.051529,387.653229 227.832428,387.653229 
	C227.171066,383.812805 226.480728,379.804230 225.714523,375.354614 
z"/>
<path fill="#F3FAF5" opacity="1.000000" stroke="none" 
	d="
M238.955475,340.454224 
	C242.232315,340.454285 245.031815,340.454285 248.188477,340.454285 
	C248.188477,347.397156 248.188477,353.952301 248.188477,360.855286 
	C240.633881,360.855286 233.091827,360.855286 224.665680,360.855286 
	C225.621750,354.130890 226.562149,347.516785 227.566299,340.454163 
	C231.592697,340.454163 235.035400,340.454163 238.955475,340.454224 
z"/>
<path fill="#FBFDFC" opacity="1.000000" stroke="none" 
	d="
M258.213989,387.844177 
	C255.640991,387.960754 253.825333,388.073578 253.937225,384.924316 
	C254.143005,379.133423 253.995941,373.330048 253.995941,367.265717 
	C261.721741,367.265717 269.135651,367.265717 277.694214,367.265717 
	C276.739655,373.659973 275.893860,379.957397 274.738556,386.197510 
	C274.606628,386.910156 272.758728,387.723114 271.676392,387.768219 
	C267.354187,387.948486 263.020111,387.843628 258.213989,387.844177 
z"/>
<path fill="#FEFFFE" opacity="1.000000" stroke="none" 
	d="
M276.863800,353.335236 
	C276.897430,356.081757 276.897430,358.370270 276.897430,360.912262 
	C269.387268,360.912262 261.970184,360.912262 254.275238,360.912262 
	C254.275238,354.260162 254.275238,347.662262 254.275238,340.780640 
	C260.867645,340.780640 267.468109,340.780640 274.626190,340.780640 
	C275.360962,344.813477 276.095551,348.845367 276.863800,353.335236 
z"/>
<path fill="#F7FCF8" opacity="1.000000" stroke="none" 
	d="
M216.819214,387.856140 
	C205.685928,387.856171 205.632874,387.870209 202.863495,377.396545 
	C202.020569,374.208557 201.558212,370.919952 200.785675,366.985413 
	C204.175827,366.985413 207.107712,366.985413 210.039597,366.985413 
	C213.007202,366.985413 215.974808,366.985413 218.999237,366.985413 
	C219.931320,374.019348 220.818558,380.714905 221.764847,387.856140 
	C220.213043,387.856140 218.746857,387.856140 216.819214,387.856140 
z"/>
<path fill="#F4FBF7" opacity="1.000000" stroke="none" 
	d="
M220.387207,349.657471 
	C219.964951,353.552673 219.642380,357.014801 219.287323,360.825562 
	C213.287323,360.825562 207.428604,360.825562 200.255569,360.825562 
	C202.227798,354.443909 203.964645,348.503906 205.971207,342.656403 
	C206.293488,341.717224 207.789536,340.626923 208.795242,340.572510 
	C213.065002,340.341461 217.354431,340.474396 221.986160,340.474396 
	C221.428680,343.727997 220.957794,346.476227 220.387207,349.657471 
z"/>
<path fill="#F9FCFA" opacity="1.000000" stroke="none" 
	d="
M280.857758,385.294678 
	C281.756836,379.164551 282.584503,373.434021 283.467010,367.323792 
	C288.960175,367.323792 294.830109,367.323792 302.118011,367.323792 
	C300.158905,373.738495 298.387115,379.783966 296.404388,385.759460 
	C296.118896,386.619781 294.846527,387.684540 293.982330,387.729889 
	C290.014648,387.938171 286.026947,387.885284 282.054810,387.722290 
	C281.605011,387.703827 281.207916,386.401337 280.857758,385.294678 
z"/>
<path fill="#FBFDFC" opacity="1.000000" stroke="none" 
	d="
M301.042511,359.132050 
	C300.254944,360.119659 299.454742,361.075653 298.627838,361.099304 
	C293.650940,361.241577 288.667938,361.170044 283.443207,361.170044 
	C282.544098,354.359497 281.666992,347.715454 280.714233,340.498444 
	C285.170990,340.498444 289.303314,340.280701 293.387329,340.629150 
	C294.636261,340.735748 296.419586,342.179047 296.813293,343.384186 
	C298.452484,348.401672 299.654907,353.561798 301.042511,359.132050 
z"/>
<path fill="#EDF8F0" opacity="1.000000" stroke="none" 
	d="
M239.954330,393.430908 
	C242.886154,393.430939 245.346420,393.430939 248.188309,393.430939 
	C248.188309,400.313690 248.188309,406.843079 248.188309,413.394012 
	C241.036346,414.861450 237.555939,413.263458 234.716217,406.892090 
	C232.908707,402.836639 231.338226,398.675537 229.200500,393.430908 
	C233.137009,393.430908 236.309875,393.430908 239.954330,393.430908 
z"/>
<path fill="#F0F9F3" opacity="1.000000" stroke="none" 
	d="
M248.561951,325.937164 
	C248.561920,329.046448 248.561920,331.675903 248.561920,334.581848 
	C242.157242,334.581848 236.249313,334.581848 229.247711,334.581848 
	C231.909470,328.378540 233.684921,322.019226 237.251801,316.910797 
	C238.913986,314.530273 244.048584,314.574280 248.561966,313.237030 
	C248.561966,317.991791 248.561966,321.724548 248.561951,325.937164 
z"/>
<path fill="#F4FBF7" opacity="1.000000" stroke="none" 
	d="
M270.890625,393.492737 
	C271.553162,394.280304 272.245178,395.208008 272.023407,395.783813 
	C270.126068,400.710175 268.915710,406.250916 265.757294,410.221863 
	C263.562805,412.980896 258.621735,413.555267 254.204865,415.399109 
	C254.204865,407.223633 254.204865,400.644623 254.204865,393.469696 
	C259.651001,393.469696 265.073761,393.469696 270.890625,393.492737 
z"/>
<path fill="#F7FCF8" opacity="1.000000" stroke="none" 
	d="
M253.985397,324.984039 
	C253.985397,321.191376 253.985397,317.887268 253.985397,314.605408 
	C263.298676,313.904846 264.947388,314.840942 268.402679,322.974701 
	C269.946503,326.608917 271.301910,330.323181 272.942535,334.510742 
	C266.475861,334.510742 260.628937,334.510742 253.985397,334.510742 
	C253.985397,331.611572 253.985397,328.542084 253.985397,324.984039 
z"/>
<path fill="#F2FAF4" opacity="1.000000" stroke="none" 
	d="
M187.759796,306.232605 
	C194.641434,310.925964 201.334396,315.262878 207.741241,319.987732 
	C208.999146,320.915436 209.151093,323.342773 209.813110,325.078461 
	C208.057953,324.884430 205.936722,325.258881 204.607712,324.403076 
	C196.656647,319.282990 188.879547,313.892029 181.064468,308.562073 
	C179.183365,307.279175 176.417252,305.926025 178.693909,303.304047 
	C179.391190,302.500977 182.328964,303.378723 184.126984,303.888214 
	C185.344467,304.233246 186.363297,305.279388 187.759796,306.232605 
z"/>
<path fill="#F2FAF4" opacity="1.000000" stroke="none" 
	d="
M321.155273,302.122620 
	C325.540100,303.072205 325.605011,305.492737 322.730591,307.538025 
	C314.206635,313.603058 305.476501,319.384949 296.687256,325.061249 
	C295.700195,325.698730 293.819550,324.952606 292.353333,324.848083 
	C292.872314,323.321777 292.919250,321.123749 293.984711,320.374939 
	C302.817108,314.167145 311.837891,308.227295 321.155273,302.122620 
z"/>
<path fill="#E7F6EC" opacity="1.000000" stroke="none" 
	d="
M277.199310,407.057312 
	C275.869751,407.737549 274.859985,408.273743 273.166351,409.173065 
	C274.960571,404.125641 276.444916,399.674957 278.175812,395.322357 
	C278.505615,394.493011 279.779816,393.571014 280.669617,393.515625 
	C284.059937,393.304413 287.471252,393.430389 290.874756,393.430389 
	C291.128723,393.949738 291.382721,394.469055 291.636688,394.988403 
	C286.930847,398.963379 282.224976,402.938324 277.199310,407.057312 
z"/>
<path fill="#EDF8F0" opacity="1.000000" stroke="none" 
	d="
M228.675781,407.038513 
	C228.283432,407.617249 227.450516,408.236664 227.216873,408.060638 
	C221.630020,403.851410 216.107376,399.556946 210.573059,395.277954 
	C210.856613,394.666382 211.140167,394.054779 211.423721,393.443207 
	C214.807068,393.443207 218.210342,393.237854 221.562073,393.563324 
	C222.622375,393.666321 223.965393,395.000427 224.452682,396.094604 
	C225.991623,399.550201 227.186462,403.159058 228.675781,407.038513 
z"/>
<path fill="#F2FAF4" opacity="1.000000" stroke="none" 
	d="
M278.120483,321.779846 
	C282.802917,325.725128 287.163452,329.489319 291.524017,333.253540 
	C291.326172,333.785522 291.128357,334.317505 290.930542,334.849487 
	C287.423889,334.849487 283.894012,335.071045 280.425598,334.707062 
	C279.454590,334.605164 278.357208,332.909271 277.848694,331.717987 
	C276.243317,327.957001 274.889679,324.088593 273.102814,319.376099 
	C275.030914,320.288696 276.414764,320.943726 278.120483,321.779846 
z"/>
<path fill="#F0F9F3" opacity="1.000000" stroke="none" 
	d="
M225.924713,328.062256 
	C225.090652,330.469208 224.364029,332.495758 223.581665,334.677734 
	C219.576508,334.677734 215.628815,334.677734 210.919098,334.677734 
	C215.454681,327.644196 221.547455,323.249969 229.514267,318.828491 
	C228.036545,322.585602 227.034332,325.133728 225.924713,328.062256 
z"/>
</svg>